<?xml version="1.0" encoding="utf-8"?>
<!-- Generator: Adobe Illustrator 21.0.0, SVG Export Plug-In . SVG Version: 6.00 Build 0)  -->
<svg version="1.1"
	 id="svg2" xmlns:cc="http://creativecommons.org/ns#" xmlns:dc="http://purl.org/dc/elements/1.1/" xmlns:rdf="http://www.w3.org/1999/02/22-rdf-syntax-ns#" xmlns:svg="http://www.w3.org/2000/svg"
	 xmlns="http://www.w3.org/2000/svg" xmlns:xlink="http://www.w3.org/1999/xlink" x="0px" y="0px" viewBox="0 0 290.5 384"
	 style="enable-background:new 0 0 290.5 384;" xml:space="preserve">
<style type="text/css">
	.st0{fill:#020202;}
</style>
<g id="g10" transform="matrix(1.3333333,0,0,-1.3333333,0,384)">
	<g id="g12" transform="scale(0.1)">
		<path id="path14" class="st0" d="M945.4,326.5c1.2,0,1.7,0.3,1.7,0.9c0,0.6,0.6,0.9,1.7,0.9v-13.9c-7.5-8.7-18.3-20-32.2-34
			c-13.9-13.9-29.9-28.7-47.9-44.4c-18-15.7-37.3-31.2-57.9-46.6c-20.6-15.4-40.8-28.8-60.5-40.1c-19.7-11.3-38.5-19.7-56.2-25.3
			c-17.7-5.5-32.7-6-44.8-1.3c-9.3,2.9-15.6,9.6-18.7,20c-3.2,10.4-4.8,22.2-4.8,35.3c0,13.1,1.2,26,3.5,38.8
			c2.3,12.8,4.9,23.2,7.8,31.3c-11.6-6.4-22.2-14.2-31.8-23.5c-9.6-9.3-19.5-17.6-29.6-24.8c-10.2-7.3-20.8-12.6-31.8-16.1
			c-11-3.5-23.5-2.9-37.4,1.7c-17.4,5.8-28.9,16.7-34.4,32.6c-5.5,16-6.5,34.3-3,54.9c3.5,20.6,10.9,41.8,22.2,63.6
			c11.3,21.8,25.5,41.5,42.7,59.2c17.1,17.7,36.4,31.6,57.9,41.8c21.4,10.1,44.1,13.8,67.9,10.9c21.5-2.9,35.4-8.9,41.8-17.8
			c6.4-9,8.3-19.2,5.7-30.5c-2.6-11.3-8-22.8-16.1-34.4c-8.1-11.6-15.7-21.2-22.6-28.7c-9.3-9.3-14.5-11.6-15.7-7
			c-2.3,2.3-1.7,5.8,1.7,10.4c3.5,5.8,7.8,13.1,13.1,21.8c5.2,8.7,9.3,17.1,12.2,25.3c2.9,8.1,3.5,15.1,1.7,20.9
			c-1.7,5.8-7.8,9.3-18.3,10.5c-7,0-15.6-3.9-25.7-11.8c-10.2-7.8-20.5-18-30.9-30.5c-10.4-12.5-20.8-26.3-30.9-41.4
			c-10.2-15.1-18.9-29.6-26.1-43.5c-7.3-13.9-12.3-26.1-15.2-36.6c-2.9-10.4-2.3-17.4,1.7-20.9c2.3-2.3,7.1-1.3,14.4,3
			c7.3,4.4,16,10,26.1,17c10.2,7,21.6,14.5,34.4,22.6c12.7,8.1,26.1,14.8,40.1,20c15.7,5.8,26.8,6.8,33.5,3.1
			c6.7-3.8,10.4-10.6,11.3-20.5c0.9-9.9-0.3-21.6-3.5-35.3c-3.2-13.6-6.7-26.9-10.4-39.6c-3.8-12.8-7-24.4-9.6-34.8
			c-2.6-10.4-3.3-17.4-2.2-20.9c2.3-7,11.9-8.7,28.7-5.2c16.8,3.5,38.3,12.5,64.4,27c26.1,14.5,55,34.7,86.7,60.5
			C881.6,256.9,913.4,288.7,945.4,326.5"/>
		<path id="path16" class="st0" d="M972.3,242.9c9.9,8.1,19.9,16.7,30,25.7c10.2,9,19.9,17.1,29.2,24.4c9.3,7.3,18.1,13.1,26.6,17.4
			c8.4,4.4,15.8,6.2,22.2,5.7c12.2-0.6,19.2-5.8,20.9-15.7c1.7-9.9,0.6-22.1-3.5-36.6c-4.1-14.5-9.7-30.2-17-47
			c-7.3-16.9-13.5-32-18.7-45.3c-5.2-13.4-8.3-23.9-9.2-31.8c-0.9-7.8,3.1-10,11.8-6.5c8.7,2.9,21.8,12.3,39.2,28.3
			c17.4,16,35.8,34.1,55.3,54.4c19.4,20.3,38,40.8,55.7,61.4c17.7,20.6,31.5,37.6,41.4,50.9l-1.7-15.7
			c-19.8-26.7-39.7-51.8-59.7-75.3c-20-23.5-38.9-44.4-56.6-62.7c-17.7-18.3-33.8-33.5-48.3-45.7c-14.5-12.2-25.8-20-34-23.5
			c-7-3.5-14.7-4.5-23.1-3.1c-8.4,1.5-13.5,4.8-15.2,10c-1.2,6.4-0.8,13.5,1.3,21.3c2,7.8,3.9,14.1,5.7,18.7
			c2.9,12.2,6.7,25.1,11.3,38.8c4.6,13.6,8.7,26.3,12.2,37.9c3.5,11.6,5.9,21.5,7.4,29.6c1.4,8.1,1,12.8-1.3,13.9
			c-4.1,1.7-9.7,0.3-17-4.4c-7.3-4.6-15.6-11.3-24.8-20c-9.3-8.7-19.2-18.6-29.6-29.6c-10.5-11.1-20.9-22.1-31.3-33.1
			c-1.7-7-3.1-13.5-3.9-19.6c-0.9-6.1-1.9-12.3-3.1-18.7c0-7-2.9-10.7-8.7-11.3c-5.8-0.6-12.3,0.6-19.6,3.5
			c-7.3,2.9-14.2,7.1-20.9,12.6c-6.7,5.5-10.6,10.9-11.8,16.1c-1.7,5.2-1.6,14.2,0.4,27c2,12.8,4.9,27.1,8.7,43.1
			c3.8,16,8.3,32.6,13.5,50.1c5.2,17.4,10.4,34,15.7,49.6c5.2,15.7,10,29.3,14.4,40.9c4.4,11.6,7.7,19.7,10,24.4
			c10.4,22.1,19.9,34.3,28.3,36.6c8.4,2.3,18.7-7,30.9-27.9c3.5-7,7.4-13.6,11.8-20c4.4-6.4,5.7-13.1,3.9-20
			c-5.2-20.3-12.5-41.4-21.8-63.1C990,286.9,981,264.9,972.3,242.9"/>
		<path id="path18" class="st0" d="M1527,478c8.1,8.7,17.8,19.7,29.2,33.1c11.3,13.4,21.8,27.6,31.4,42.7
			c9.6,15.1,17.4,30.2,23.5,45.3c6.1,15.1,8.3,28.7,6.5,40.9c-1.7,10.5-6.4,11-13.9,1.7c-6.4-5.8-13.7-14.8-21.8-27
			c-8.2-12.2-16.3-25.6-24.4-40.1c-8.1-14.5-15.7-29-22.6-43.6c-7-14.5-12.5-26.4-16.6-35.7c-6.4-15.1-9.1-24.4-8.3-27.9
			C1510.9,464.1,1516.6,467.6,1527,478L1527,478z M1218.8,174.9c-11.6,7.5-18.9,19.7-21.8,36.6c-2.9,16.8-2.5,35.4,1.3,55.7
			c3.8,20.3,10.7,40.6,20.9,61c10.2,20.3,22.3,38.3,36.6,54c14.2,15.7,30.3,27.1,48.3,34.4c18,7.3,36.6,8,55.8,2.2
			c11-3.5,19-9.3,23.9-17.4c4.9-8.1,7.5-17.1,7.8-27c0.3-9.9-1-19.7-3.9-29.6c-2.9-9.9-6.4-18.3-10.4-25.3
			c-4.7-8.1-8.8-12.3-12.6-12.6c-3.8-0.3-3.1,4.5,2.2,14.4c2.9,5.8,4.9,11.4,6.1,17c1.2,5.5,1.2,10.5,0,14.8
			c-1.2,4.4-3.8,8-7.8,10.9c-4.1,2.9-9.9,4.4-17.4,4.4c-6.4,0-13.7-3.4-21.8-10c-8.2-6.7-16.3-15.4-24.4-26.1
			c-8.1-10.8-15.8-22.5-23.1-35.3c-7.3-12.8-13.2-25.4-17.8-37.9c-4.6-12.5-7.7-23.7-9.1-33.5c-1.4-9.9-0.1-16.9,3.9-20.9
			c8.1-10.4,21.8-12.9,40.9-7.4c19.2,5.5,39.8,16.7,61.9,33.5c1.2,1.7,1.7,3.2,1.7,4.3c0,1.2,0.6,2.6,1.7,4.4
			c8.7,33.7,20.3,69.9,34.8,108.9c14.5,38.9,29.9,76.9,46.2,114.1c16.3,37.1,32.4,71.7,48.3,103.6c16,31.9,29.8,57.8,41.4,77.5
			c7,12.2,14.7,23.8,23.1,34.8c8.4,11,17.1,19.6,26.2,25.7c9,6.1,18.1,9,27.4,8.7c9.3-0.3,18-6,26.1-17c11-15.1,17-30.6,17.8-46.6
			s-1.7-32.1-7.8-48.3c-6.1-16.3-14.5-32.5-25.3-48.8c-10.8-16.3-22.4-31.9-34.8-47c-12.5-15.1-24.7-29.5-36.6-43.1
			c-11.9-13.7-21.9-26.3-30-37.9c-11.6-15.7-23.5-35-35.7-57.9c-12.2-22.9-23.5-47-34-72.3c-10.4-25.3-19.3-50.2-26.6-74.9
			c-7.3-24.7-11.8-46.9-13.5-66.6c-2.3-22.1,0.1-36.9,7.4-44.4c7.3-7.5,17.8-9.9,31.8-7c13.9,2.9,30.2,10,48.8,21.3
			c18.6,11.3,38,24.5,58.3,39.6c20.3,15.1,40.3,31.5,60.1,49.2c19.7,17.7,37.9,34.2,54.4,49.6c16.6,15.4,30.5,28.7,41.8,40.1
			c11.3,11.3,18.4,18.7,21.3,22.2c1.2,2.3,2.9,4.6,5.2,7v-26.1c-9.9-12.2-23.1-26.6-39.6-43.1c-16.6-16.6-35.1-34-55.7-52.3
			c-20.6-18.3-42.2-36.3-64.9-54c-22.7-17.7-44.6-33.5-65.8-47.4c-21.2-13.9-40.8-25.1-58.8-33.5c-18-8.4-32.8-12.3-44.4-11.8
			c-9.9,0.6-19,4.2-27.4,10.9c-8.4,6.7-15.4,16.3-20.9,28.7c-5.5,12.5-9,27.9-10.4,46.1c-1.5,18.3,0.1,39.6,4.8,64
			c-26.1-17.4-51.4-30.5-75.8-39.2C1254.5,163.6,1234.4,164.5,1218.8,174.9"/>
		<path id="path20" class="st0" d="M176.8,398.6c13.6,4.1,26.2,12.6,37.8,25.6c11.6,12.9,21.3,30.8,29.1,53.7
			c7.8,22.8,11.8,53.3,11.8,91.5c0,37.5-3.9,68-11.8,91.5c-7.8,23.5-17.5,41.7-29.1,54.7c-11.6,12.9-24.2,21.6-37.8,26.1
			c-13.6,4.4-25.9,6.6-36.8,6.6h-33.7V392.5H140C150.9,392.5,163.2,394.5,176.8,398.6z M358.7,617.3c1.3-7.5,2.4-16.7,3.1-27.6
			c0.7-10.9,1-17.7,1-20.4v-3.1c0-4.8-0.2-9.4-0.5-13.8c-0.3-4.4-0.9-9-1.5-13.8c-3.4-26.6-10.6-50.3-21.4-71
			c-10.9-20.8-24.7-38.5-41.4-53.2c-16.7-14.7-36.1-25.9-58.3-33.7c-22.1-7.8-45.5-11.7-70-11.7h-63.4V0H0v771.6h169.6
			c47,0,87.9-13.6,122.7-40.9C327,703.5,349.2,665.7,358.7,617.3"/>
		<path id="path22" class="st0" d="M2179,771.6v-25.5h-198.3V404.7h131.9v-25.5h-131.9V0h-106.3v771.6H2179"/>
		<path id="path24" class="st0" d="M610.7,2388.3c14.5,29.3,29.9,58.3,43.2,88.1c27.7,62,47.5,126.7,65.6,192.1
			c12.4,45,27.7,88.9,51.7,129.5c36.4,61.5,90.9,86.2,160.6,81.5c4-0.3,8,0.2,11.9,0.3c17.6-3.2,35.2-6.5,52.7-9.7
			c20.6-7.1,41.6-13.3,61.8-21.5c35.9-14.6,71.4-30.5,107.1-45.8c-0.4-0.9-0.8-1.9-1.2-2.8c-25,9.9-49.8,20.2-74.9,29.5
			c-45.4,16.7-91.3,31.1-140.1,34.9c-85.4,6.8-142.9-27.5-173.9-108.1c-13.9-36.3-24.2-74-35.4-111.2
			c-23.9-79.3-49.8-157.7-86.7-232.2c-0.9-1.8-1.4-3.8-3.1-8.8c228.7-10.1,408.7,77.3,547.3,260c-21.3-37.4-44.9-69.7-72.5-98.8
			c-114.2-120.2-256.6-177-420.2-183.9c-31.4-1.3-63,2.7-94.5,4.3C610.4,2386.7,610.5,2387.5,610.7,2388.3"/>
		<path id="path26" class="st0" d="M1081.4,900.8c49.6-27.5,102.1-36.8,157.7-27.7c55.3,9.1,104.4,33,148.9,66.1
			c107.5,80.1,177.4,185.5,209.8,315.8c30.3,121.9,25,243.7,0.7,365.7c-14.2,71.5-39.2,139.7-62.6,208.4
			c-24.2,71-40.9,143.8-39,219.3c1.1,42.5,5.7,85,9.2,127.4c4.6,56.3,10,112.8-4.2,168.2c-6.2,24-16.1,47.8-28.4,69.3
			c-19.7,34.6-52.3,48.4-91.1,41.9c-25.8-4.3-51-12.8-76.1-20.5c-30.2-9.3-59.8-20.8-90.1-29.5c-21.7-6.3-44.3-8.4-66.7-0.8
			c32.3-4.8,62,4.8,90.8,17.4c28.6,12.5,56.6,26.5,85,39.5c91.2,41.7,162.4-6.8,192.1-79.9c18.3-45.2,23.7-92.7,22.4-140.8
			c-1.5-54.7-4.7-109.4-8.4-164.1c-4.8-71.7,8.2-140.4,31.2-207.9c21.4-62.6,44.4-124.8,61.6-188.5c35.4-131.9,44.1-265.7,14.5-400
			c-36-163.1-120.3-293-268.1-376.8c-52-29.5-107.8-47.2-168.4-44.6C1157.7,860.6,1117,874,1081.4,900.8"/>
		<path id="path28" class="st0" d="M1153.7,2498c-35.3,5.3-63.6-8.5-88-32.4c-33.4-32.6-56.3-72.4-74.8-114.4
			c-24.9-56.3-49.2-113.1-70.2-170.9c-20.5-56.2-52.7-103.8-93.3-146.6c-43.3-45.6-86.4-91.4-129.8-136.9
			c-80-83.9-134.6-181.8-165.1-293.8c-30.2-111.1-38.5-222.9-13.5-335.9c19.6-88.3,55.4-169.3,120.4-234
			c98.9-98.5,218.7-127.7,353.8-101.4c14.1,2.8,27.9,6.9,42.1,9.5c-31.8-13.2-64.9-21.8-99.1-25c-160.7-15-283.6,49.5-371.8,181.6
			c-55.2,82.7-79.4,176.5-83.5,275c-6.6,157.2,30.6,303.5,115.5,436.5c34.9,54.7,80.5,100.5,125.8,146.6
			c40.4,41.1,81.4,81.8,119,125.3c45,52,72.3,114.9,100.5,177.1c23.1,50.9,46.8,101.6,72.6,151.2c15.9,30.7,37.8,57.7,67.6,77
			C1103.9,2500.9,1127.8,2505.7,1153.7,2498"/>
		<path id="path30" class="st0" d="M1317.4,2747.2c-37.4-4-74.9-7.5-112.3-12.1c-88.3-10.7-175.7-25.7-258.9-58.9
			c-86.8-34.6-159.4-86.6-208.1-168.3c-5.1-8.6-9.8-17.5-14.7-26.3c-0.9,0.4-1.8,0.9-2.7,1.3c8,16.5,15,33.6,24.1,49.5
			c40.4,70.9,101.6,117.9,174.9,150.7c80.6,36,166.1,52.3,253.3,59.6c47.9,4,96.1,5.1,144.2,7.4
			C1317.3,2749.3,1317.3,2748.3,1317.4,2747.2"/>
		<path id="path32" class="st0" d="M1244.8,2491.9c29.1,43.9,42.3,94,60.4,142c12,32,25.8,63.1,48.7,89.1
			c30.4,34.6,69.1,50.1,114.9,46.8c34.3-2.5,55.4-28.2,49.5-58.7c-2.8-14.1-7.8-19.3-21.9-18.9c-54.2,1.6-91.8-23.4-116.6-70.4
			c-12.2-23.2-25.9-45.6-38.9-68.4c-1,0.5-1.9,1.1-2.9,1.6c20.6,37.6,39.4,76.4,62.3,112.5c14.2,22.5,40,30.8,65.8,35.5
			c9.2,1.7,18.4,3.2,27.7,3.5c7.9,0.2,9.4,4.2,9.6,10.7c0.5,20.1-12,34-33.9,35.2c-44.1,2.3-82.2-10.9-111.7-45.3
			c-24.2-28.2-38.2-61.8-51.8-95.7c-14.8-36.8-28.1-74.4-51.7-106.9C1251.2,2500.2,1247.9,2496.1,1244.8,2491.9"/>
	</g>
</g>
</svg>
