<?xml version="1.0" standalone="no"?>
<!DOCTYPE svg PUBLIC "-//W3C//DTD SVG 20010904//EN"
 "http://www.w3.org/TR/2001/REC-SVG-20010904/DTD/svg10.dtd">
<svg version="1.0" xmlns="http://www.w3.org/2000/svg"
 width="1250.000000pt" height="1250.000000pt" viewBox="0 0 1250.000000 1250.000000"
 preserveAspectRatio="xMidYMid meet">
<metadata>
Created by potrace 1.11, written by Peter Selinger 2001-2013
</metadata>
<g transform="translate(0.000000,1250.000000) scale(0.100000,-0.100000)"
fill="#000000" stroke="none">
<path d="M5208 11299 c-10 -5 -18 -7 -18 -3 0 4 -9 -1 -20 -11 -11 -10 -20
-13 -20 -8 0 6 -11 10 -24 9 -13 0 -22 -4 -20 -8 2 -4 -5 -9 -16 -13 -11 -3
-20 -11 -20 -18 0 -8 -3 -8 -12 1 -9 9 -17 5 -34 -13 -13 -14 -32 -25 -42 -25
-11 0 -28 -11 -38 -25 -18 -25 -42 -36 -28 -13 4 7 3 8 -5 4 -6 -4 -9 -11 -6
-16 3 -5 -6 -17 -20 -26 -13 -9 -22 -20 -19 -25 3 -5 0 -8 -7 -7 -7 2 -18 -7
-24 -20 -7 -13 -16 -23 -19 -22 -4 1 -16 -10 -27 -25 -12 -14 -25 -23 -30 -20
-5 4 -6 -1 -3 -9 3 -9 1 -16 -6 -16 -6 0 -9 -4 -6 -9 3 -4 -6 -13 -19 -19 -17
-8 -23 -17 -18 -27 3 -10 -2 -22 -16 -31 -12 -9 -19 -20 -16 -25 11 -18 -5
-48 -22 -42 -10 4 -14 2 -9 -5 3 -6 2 -13 -4 -17 -5 -3 -10 -17 -10 -30 0 -13
-5 -27 -12 -31 -7 -5 -8 -3 -3 6 5 8 4 11 -2 7 -14 -9 -24 -47 -12 -47 5 0 2
-11 -7 -25 -9 -14 -21 -22 -27 -18 -6 3 -7 1 -3 -5 4 -7 2 -12 -5 -12 -8 0 -8
-4 1 -15 10 -12 10 -15 0 -15 -8 0 -10 -3 -7 -6 9 -10 -12 -46 -24 -39 -5 4
-9 2 -9 -4 0 -5 6 -12 13 -14 6 -3 7 -6 1 -6 -6 -1 -9 -14 -6 -30 3 -22 -1
-32 -17 -40 -16 -9 -21 -21 -21 -55 0 -35 -4 -45 -25 -56 -19 -10 -22 -16 -14
-27 9 -10 8 -13 -1 -13 -10 0 -10 -3 0 -15 7 -9 8 -15 2 -15 -5 0 -8 -9 -5
-21 5 -19 -28 -64 -39 -53 -3 2 -2 -16 2 -41 4 -25 3 -45 -2 -45 -5 0 -7 -4
-4 -9 3 -4 -4 -19 -15 -32 -11 -13 -16 -25 -10 -27 8 -3 7 -10 -1 -25 -8 -16
-8 -22 2 -25 7 -3 -1 -16 -21 -34 -23 -22 -29 -32 -20 -38 8 -4 9 -10 3 -14
-5 -3 -7 -16 -5 -29 3 -14 -2 -31 -11 -39 -8 -9 -16 -37 -17 -66 -1 -28 -6
-49 -10 -47 -9 6 -30 -20 -22 -28 3 -4 2 -7 -3 -7 -5 0 -9 -16 -8 -35 2 -28
-2 -35 -15 -33 -10 2 -15 -3 -15 -14 1 -10 -2 -18 -6 -18 -5 0 -5 -14 0 -31 5
-18 7 -29 4 -27 -3 3 -16 -4 -29 -16 -16 -14 -20 -23 -12 -28 9 -6 9 -8 0 -8
-6 0 -9 -8 -6 -19 3 -12 -4 -28 -17 -41 -18 -18 -20 -24 -9 -31 9 -6 10 -9 2
-9 -6 0 -10 -9 -8 -20 2 -11 -2 -20 -8 -20 -17 0 -38 -48 -24 -57 6 -4 -1 -16
-19 -31 -16 -13 -23 -21 -16 -18 6 4 12 2 12 -3 0 -6 -5 -11 -11 -11 -5 0 -7
-5 -4 -11 4 -5 -3 -19 -15 -29 -12 -10 -23 -32 -24 -49 -1 -17 -5 -31 -9 -31
-4 0 -14 -5 -21 -12 -10 -10 -11 -15 -2 -20 8 -5 7 -8 -3 -8 -11 0 -11 -3 -1
-15 9 -11 9 -15 1 -15 -7 0 -21 -9 -33 -20 -12 -11 -17 -20 -10 -20 16 0 3
-31 -22 -53 -17 -15 -18 -20 -6 -27 13 -8 13 -10 1 -10 -8 0 -12 -3 -8 -6 3
-3 -6 -17 -21 -31 -20 -19 -23 -26 -13 -32 8 -6 10 -14 5 -22 -12 -20 -13 -53
-1 -61 7 -4 7 -11 -1 -20 -18 -23 0 -34 58 -37 30 -2 58 -5 62 -7 5 -3 8 1 8
8 0 7 12 0 26 -17 19 -22 27 -26 33 -16 6 9 11 10 15 2 4 -6 12 -9 17 -5 15 9
78 11 73 2 -8 -13 11 -9 24 4 9 9 12 9 12 0 0 -10 5 -10 21 -1 16 8 20 8 14
-1 -6 -9 -2 -9 14 -1 11 7 21 8 21 3 0 -5 7 -9 15 -9 8 0 15 5 15 10 0 5 6 4
13 -2 8 -6 16 -8 20 -5 9 9 76 10 71 2 -8 -13 11 -9 24 4 9 9 12 9 12 0 0 -10
5 -10 21 -1 16 8 20 8 14 -1 -6 -9 -2 -9 14 -1 11 7 21 8 21 3 0 -5 7 -9 15
-9 8 0 15 5 15 10 0 5 5 5 13 -1 7 -6 18 -7 26 -3 8 5 27 5 43 0 24 -6 29 -5
24 6 -6 17 34 31 59 21 8 -3 15 -1 15 4 0 5 13 5 30 0 17 -5 30 -5 30 0 0 5
13 5 30 0 17 -5 30 -5 30 -2 0 4 17 6 38 4 29 -3 43 2 64 21 17 16 29 21 32
14 3 -9 5 -9 5 -1 1 8 14 9 41 4 22 -4 40 -3 40 2 0 5 7 5 18 -1 12 -6 21 -5
30 5 10 11 10 14 0 14 -9 0 -9 3 2 9 8 6 17 8 21 5 4 -2 11 1 15 7 4 8 9 7 15
-2 7 -11 9 -11 9 -1 0 10 5 10 20 2 15 -8 20 -8 20 2 0 9 3 9 10 -2 7 -11 10
-11 10 -2 0 7 4 11 9 7 6 -3 15 4 21 15 9 17 19 21 50 19 22 -2 45 3 56 11 9
8 27 15 38 15 12 1 27 4 34 8 6 5 12 4 12 -2 0 -6 7 -8 15 -5 8 4 13 10 10 14
-3 4 6 15 20 24 14 9 25 12 25 6 0 -8 6 -7 20 0 14 8 20 8 20 0 0 -6 5 -8 11
-5 6 4 8 9 5 12 -3 4 4 14 16 25 17 14 23 16 30 6 5 -10 14 -6 34 15 14 16 32
26 40 23 7 -3 16 -1 20 5 3 6 12 8 20 5 8 -3 13 -2 13 2 -1 4 -1 14 0 22 1 11
3 12 9 3 6 -9 15 -8 40 4 17 8 29 19 26 24 -3 5 8 9 24 9 18 0 32 6 36 16 4 9
9 14 13 11 3 -4 13 -1 21 6 13 10 14 9 3 -10 -6 -13 -16 -23 -21 -23 -5 0 -7
-7 -4 -15 7 -16 -13 -48 -25 -41 -4 3 -7 -8 -6 -22 0 -20 -5 -27 -18 -25 -10
0 -16 -1 -13 -4 3 -3 1 -15 -5 -26 -8 -15 -8 -18 1 -12 7 4 4 -4 -5 -19 -9
-14 -21 -24 -25 -21 -4 3 -10 -2 -14 -10 -3 -8 0 -15 6 -15 7 0 7 -4 0 -12 -6
-7 -11 -17 -12 -23 -1 -5 -7 -10 -13 -9 -7 1 -13 -6 -14 -15 -5 -57 -8 -65
-33 -63 -3 0 -4 -17 -4 -39 1 -21 -2 -37 -6 -34 -10 6 -32 -20 -23 -28 3 -4 1
-7 -6 -7 -8 0 -10 -7 -6 -19 3 -12 0 -23 -8 -28 -7 -4 -16 -16 -20 -26 -4 -12
-3 -16 4 -11 6 3 3 -8 -5 -25 -9 -17 -19 -31 -22 -31 -3 0 -2 6 2 13 5 7 1 6
-10 -3 -10 -8 -14 -16 -8 -18 17 -5 -10 -60 -32 -66 -16 -5 -18 -8 -7 -15 9
-6 10 -10 2 -16 -9 -5 -9 -10 0 -21 9 -11 8 -14 -5 -14 -9 0 -16 -5 -16 -11 0
-5 -4 -8 -9 -5 -14 9 -21 -20 -8 -33 8 -8 8 -11 -2 -11 -7 0 -9 -5 -6 -10 3
-6 -1 -13 -10 -16 -9 -4 -14 -13 -11 -20 3 -8 2 -14 -3 -14 -5 0 -7 -11 -6
-24 2 -19 -3 -26 -22 -31 -20 -5 -23 -8 -13 -20 8 -10 9 -15 2 -15 -6 0 -9 -6
-6 -14 5 -14 -28 -41 -38 -31 -2 3 -3 -9 0 -25 3 -24 -2 -36 -22 -55 -15 -14
-23 -25 -18 -25 5 0 7 -11 4 -25 -2 -14 -8 -22 -13 -19 -5 3 -9 0 -9 -6 0 -6
-3 -9 -7 -7 -5 3 -8 -6 -8 -19 0 -13 4 -24 8 -24 4 0 2 -6 -5 -14 -7 -8 -15
-12 -17 -10 -2 1 -10 -4 -19 -12 -12 -12 -12 -18 -3 -23 10 -6 9 -12 -3 -24
-9 -8 -16 -20 -16 -26 0 -6 -4 -11 -10 -11 -5 0 -7 -6 -4 -14 3 -9 -3 -20 -15
-28 -12 -7 -21 -20 -21 -30 0 -9 -10 -24 -21 -32 -14 -9 -19 -21 -15 -31 4
-12 0 -18 -14 -22 -22 -6 -35 -36 -24 -55 4 -7 4 -10 -1 -6 -4 4 -16 3 -27 -3
-15 -8 -17 -13 -7 -25 9 -11 5 -17 -22 -29 -19 -8 -27 -15 -19 -15 11 0 8 -7
-10 -23 -26 -23 -30 -29 -30 -48 0 -5 -4 -7 -10 -4 -5 3 -10 1 -10 -5 0 -6 -5
-8 -12 -4 -7 4 -8 3 -4 -5 10 -16 -3 -51 -17 -48 -7 1 -11 -4 -9 -12 2 -8 -3
-11 -13 -8 -8 4 -15 2 -15 -3 0 -17 -33 -49 -43 -43 -6 3 -7 1 -3 -5 4 -6 -7
-21 -24 -33 -16 -13 -33 -31 -36 -42 -3 -10 -8 -16 -11 -14 -7 8 -53 -43 -53
-58 0 -8 -4 -14 -8 -12 -11 3 -96 -83 -105 -106 -3 -9 -10 -16 -14 -15 -4 2
-9 -2 -11 -7 -2 -6 -14 -16 -28 -23 -13 -7 -24 -19 -24 -27 0 -7 -5 -17 -12
-21 -7 -4 -8 -3 -4 4 4 7 4 12 1 12 -3 0 -11 -13 -16 -29 -7 -20 -15 -28 -25
-24 -8 3 -14 2 -13 -3 4 -16 -13 -44 -22 -38 -8 5 -13 -10 -10 -30 1 -5 -7 -6
-19 -3 -15 4 -20 0 -20 -14 0 -10 -6 -19 -14 -19 -7 0 -21 -11 -30 -25 -9 -14
-21 -23 -26 -20 -6 4 -10 -2 -10 -12 0 -10 -9 -24 -20 -31 -12 -7 -18 -17 -15
-22 3 -5 -5 -12 -17 -16 -22 -7 -56 -34 -42 -34 3 0 1 -7 -6 -15 -7 -8 -16
-13 -20 -10 -5 3 -12 0 -16 -6 -5 -8 -2 -10 7 -5 8 4 5 0 -5 -8 -11 -9 -16
-16 -10 -17 5 0 -1 -4 -13 -9 -16 -7 -21 -14 -16 -26 4 -12 3 -15 -5 -10 -7 4
-12 2 -12 -4 0 -6 -4 -8 -10 -5 -5 3 -10 -1 -10 -10 0 -9 -4 -13 -10 -10 -5 3
-10 1 -10 -5 0 -6 -22 -33 -50 -60 -27 -27 -50 -51 -50 -54 0 -2 -19 -23 -42
-45 -22 -23 -36 -41 -29 -41 7 0 9 -5 6 -10 -4 -6 -11 -8 -16 -5 -5 4 -9 1 -9
-5 0 -7 -15 -26 -32 -43 -18 -17 -26 -27 -18 -22 8 4 1 -6 -17 -24 -18 -18
-30 -38 -26 -47 3 -8 0 -14 -6 -14 -6 0 -16 -11 -21 -25 -5 -14 -16 -25 -23
-25 -8 0 -19 -11 -25 -25 -7 -14 -7 -25 -2 -25 5 0 -2 -11 -16 -25 -14 -14
-22 -30 -18 -37 4 -6 3 -9 -2 -6 -5 3 -17 -5 -27 -18 -11 -15 -13 -24 -6 -24
8 0 8 -4 -1 -15 -7 -8 -16 -12 -21 -9 -5 3 -8 2 -7 -3 1 -4 -3 -18 -10 -30 -9
-15 -9 -23 -2 -23 7 0 6 -5 -2 -14 -7 -8 -16 -12 -19 -10 -4 2 -9 -5 -12 -16
-3 -11 -1 -23 4 -26 5 -3 7 -10 3 -15 -3 -5 -9 -7 -14 -4 -14 9 -40 -24 -33
-42 5 -12 3 -14 -7 -8 -9 6 -11 4 -6 -4 5 -7 2 -18 -7 -24 -19 -16 -29 -47
-15 -47 6 0 -2 -12 -18 -27 -30 -29 -35 -47 -20 -72 7 -10 5 -13 -5 -9 -8 3
-20 -1 -27 -8 -10 -11 -10 -14 0 -14 10 0 10 -2 -1 -9 -11 -7 -11 -9 0 -14 9
-4 10 -6 2 -6 -7 -1 -10 -7 -7 -15 3 -8 -4 -20 -15 -28 -12 -8 -18 -18 -14
-21 3 -4 2 -7 -4 -7 -13 0 -12 -32 1 -42 6 -4 -2 -12 -17 -19 -23 -10 -27 -19
-28 -53 -2 -66 -3 -71 -19 -71 -8 -1 -14 -6 -13 -13 2 -7 -2 -12 -8 -12 -8 0
-8 -5 1 -15 7 -9 8 -15 2 -15 -12 0 -10 -33 3 -42 6 -5 5 -8 -3 -8 -7 0 -10
-4 -7 -10 6 -9 -8 -14 -27 -11 -10 1 -5 -22 6 -30 5 -4 5 -13 0 -20 -12 -20
-12 -49 0 -49 6 0 -5 -14 -24 -32 -21 -19 -30 -33 -23 -35 9 -3 10 -10 3 -23
-7 -13 -7 -21 0 -25 7 -4 6 -13 -1 -27 -8 -15 -8 -22 1 -28 9 -5 6 -13 -10
-28 -17 -16 -21 -29 -18 -56 2 -20 1 -36 -2 -36 -4 0 -4 -22 0 -50 4 -27 2
-50 -2 -50 -5 0 -6 -5 -3 -10 4 -6 1 -17 -5 -25 -7 -8 -10 -26 -8 -40 3 -14 2
-25 -2 -25 -4 0 -4 -18 0 -40 4 -22 4 -40 1 -40 -3 0 -4 -31 -1 -70 3 -38 2
-70 -2 -70 -3 0 -3 -13 2 -30 5 -17 5 -30 0 -30 -5 0 -5 -13 0 -30 5 -16 5
-30 2 -30 -4 0 -5 -31 -2 -70 3 -38 2 -70 -1 -70 -3 0 -3 -18 1 -40 4 -22 4
-40 1 -40 -3 0 -4 -31 -1 -70 3 -38 2 -70 -2 -70 -3 0 -3 -13 2 -30 5 -17 5
-30 0 -30 -5 0 -5 -13 0 -30 5 -16 6 -30 2 -30 -4 0 -5 -45 -2 -100 3 -55 1
-100 -3 -100 -5 0 1 -13 13 -30 12 -16 17 -30 12 -30 -4 0 -6 -22 -2 -50 4
-27 3 -50 -2 -50 -5 0 -4 -9 2 -20 8 -15 8 -20 -1 -20 -6 0 0 -12 14 -26 21
-21 24 -30 16 -45 -7 -13 -6 -19 1 -19 8 0 8 -6 0 -20 -8 -15 -8 -20 1 -20 8
0 7 -5 -2 -17 -7 -10 -10 -15 -5 -11 12 10 49 -28 41 -42 -4 -7 -2 -16 6 -20
9 -6 10 -13 3 -22 -15 -19 -11 -43 6 -43 11 0 16 -12 17 -43 1 -33 8 -50 28
-68 14 -13 21 -24 14 -24 -8 0 -9 -3 0 -13 6 -8 8 -17 4 -20 -3 -4 -1 -7 5 -7
7 0 12 -7 12 -15 0 -8 4 -15 9 -15 6 0 10 -8 9 -17 0 -43 18 -87 33 -78 8 5
14 -32 10 -57 0 -5 5 -8 13 -8 9 0 13 -7 11 -20 -2 -11 1 -20 6 -20 6 0 7 -5
4 -10 -3 -6 5 -14 19 -20 17 -6 24 -14 20 -25 -4 -9 -1 -15 8 -15 8 0 15 -7
16 -15 1 -8 3 -22 4 -30 1 -8 5 -15 10 -15 5 0 6 -5 2 -12 -4 -6 -3 -8 4 -4 6
3 18 -2 28 -11 11 -11 13 -18 5 -21 -7 -2 -3 -10 9 -20 12 -10 22 -27 23 -39
0 -12 4 -20 8 -17 10 6 40 -37 33 -48 -3 -4 4 -8 15 -8 13 0 21 -6 21 -18 0
-10 9 -24 20 -32 11 -8 20 -18 20 -23 0 -5 25 -33 56 -63 31 -30 54 -54 50
-54 -11 0 38 -46 62 -59 12 -6 21 -17 19 -24 -1 -7 6 -11 17 -9 10 2 15 -1 12
-7 -7 -11 22 -44 33 -37 4 3 13 -9 20 -25 7 -16 19 -29 27 -29 9 0 12 -5 9
-10 -4 -6 -3 -10 2 -9 27 5 45 -4 54 -28 7 -18 13 -23 16 -14 4 9 12 5 29 -14
13 -16 24 -25 24 -21 0 4 11 -4 24 -18 13 -15 33 -26 44 -26 11 0 23 -8 26
-18 3 -10 16 -18 28 -19 11 -1 25 -8 29 -15 5 -7 9 -9 9 -4 0 6 7 1 15 -10 11
-14 15 -16 15 -4 1 13 2 13 13 0 7 -8 21 -22 31 -30 18 -13 19 -13 12 0 -4 8
-1 7 7 -3 9 -11 16 -14 19 -7 2 6 12 3 25 -9 12 -12 38 -21 61 -22 23 -2 40
-5 40 -8 -2 -21 5 -29 27 -33 14 -3 25 -2 25 2 0 5 9 6 20 3 11 -3 20 -9 20
-14 0 -5 3 -8 8 -8 19 3 33 -2 28 -10 -3 -5 10 -11 29 -13 19 -2 35 -1 35 2 0
3 18 4 40 2 25 -3 40 -9 40 -18 0 -7 12 -16 28 -20 15 -3 33 -7 40 -10 6 -2
12 1 12 6 0 5 13 5 30 0 17 -5 30 -5 30 0 0 5 13 5 30 0 17 -5 30 -5 30 0 0 5
13 5 30 0 17 -5 30 -5 30 0 0 5 13 5 30 0 17 -5 30 -6 30 -2 0 4 54 5 120 2
66 -3 120 -2 120 2 0 4 14 3 30 -2 17 -5 30 -5 30 0 0 5 13 5 30 0 17 -5 30
-5 30 0 0 5 13 5 30 0 17 -5 30 -5 30 0 0 5 13 5 30 0 17 -5 30 -5 30 -1 0 9
43 6 59 -4 6 -3 11 0 11 8 0 14 27 32 43 29 4 -1 7 1 7 5 0 5 28 6 61 5 34 -2
59 0 56 5 -9 14 18 30 51 29 18 -1 32 2 32 5 0 3 11 4 25 1 14 -2 25 -1 24 4
-4 21 2 35 11 29 6 -3 10 -1 10 4 0 6 7 11 16 11 13 0 15 8 12 35 -2 19 -2 35
2 35 3 0 5 14 5 30 0 17 -4 30 -8 30 -5 0 -5 5 -2 10 3 6 1 10 -5 10 -6 0 -8
4 -5 10 4 7 -3 7 -19 0 -17 -6 -26 -6 -26 1 0 6 -7 6 -20 -1 -12 -6 -20 -7
-20 -1 0 11 -19 9 -39 -3 -8 -5 -16 -4 -21 4 -10 16 -19 15 -39 -9 -15 -17
-30 -21 -84 -21 -55 0 -68 -3 -77 -19 -8 -16 -20 -19 -75 -18 -36 1 -65 -1
-65 -5 0 -4 -13 -3 -30 2 -17 5 -30 5 -30 0 0 -5 -13 -5 -30 0 -18 5 -30 5
-30 -1 0 -5 -3 -8 -7 -8 -22 4 -44 -2 -39 -10 3 -4 -10 -7 -29 -6 -19 1 -32
-2 -29 -7 7 -11 0 -10 -33 3 -88 36 -103 40 -103 31 0 -4 -27 -5 -60 -2 -33 3
-60 3 -60 0 0 -3 -17 -4 -37 -2 -39 5 -63 21 -63 44 0 10 -3 9 -10 -2 -5 -8
-10 -10 -10 -5 0 6 -9 11 -20 11 -11 0 -20 -4 -20 -8 0 -5 -9 -4 -20 2 -15 8
-20 8 -20 -1 0 -8 -4 -8 -15 1 -8 6 -13 17 -12 23 1 8 -19 13 -56 15 -43 2
-60 8 -69 22 -6 10 -17 16 -24 13 -6 -2 -15 0 -18 6 -4 6 -13 8 -20 5 -9 -3
-17 3 -21 17 -6 17 -9 19 -16 8 -5 -8 -9 -9 -9 -3 0 6 -8 11 -17 11 -35 0 -44
3 -38 12 3 6 -4 15 -16 21 -17 10 -20 9 -14 -2 4 -7 -5 0 -20 15 -18 19 -30
25 -35 18 -4 -8 -13 -3 -25 13 -10 14 -22 23 -27 20 -4 -3 -8 0 -8 6 0 6 -4 9
-8 6 -5 -3 -27 13 -50 34 -23 22 -48 40 -55 40 -18 0 -39 24 -29 34 4 4 3 7
-3 6 -22 -5 -35 1 -35 16 0 8 -4 13 -10 9 -5 -3 -17 6 -26 20 -13 20 -19 23
-25 13 -5 -7 -9 -10 -10 -5 -1 4 -3 12 -4 17 -1 6 -3 15 -4 20 0 6 -7 10 -15
10 -8 0 -18 9 -21 20 -4 12 -15 20 -27 20 -12 0 -19 3 -15 6 3 3 -10 21 -29
40 -19 19 -34 37 -34 39 0 2 -11 16 -26 30 -14 14 -22 30 -18 37 4 7 3 8 -4 4
-7 -4 -12 -2 -12 3 0 10 -18 36 -47 66 -7 7 -9 15 -6 19 6 5 -12 10 -29 7 -4
0 -5 6 -2 14 4 9 0 15 -7 15 -11 0 -11 3 1 10 13 9 13 10 0 11 -8 1 -18 1 -22
0 -5 0 -8 12 -8 28 0 20 -6 30 -20 34 -14 4 -20 14 -20 34 0 18 -8 33 -21 42
-16 10 -19 15 -9 21 9 6 7 13 -9 29 -12 12 -26 19 -31 16 -6 -4 -6 5 1 22 7
19 7 29 0 31 -6 2 -9 8 -5 13 4 8 -16 14 -38 10 -4 0 -4 9 1 22 10 24 -7 57
-28 57 -7 0 -10 4 -7 9 4 5 1 11 -6 13 -7 3 -8 9 -3 19 13 20 15 39 4 39 -6 0
-7 5 -4 10 3 6 0 10 -8 10 -8 0 -17 9 -20 20 -3 11 -2 20 2 20 16 0 -2 58 -19
63 -16 4 -20 16 -22 68 -2 42 -7 63 -15 62 -13 -3 -21 32 -22 91 0 26 -8 47
-22 63 -13 12 -18 23 -13 23 5 0 2 5 -6 10 -8 5 -10 10 -4 10 7 0 9 15 4 45
-4 25 -4 45 0 45 13 0 -3 54 -20 73 -14 14 -16 26 -10 53 4 19 4 36 0 39 -4 3
-4 21 0 40 4 19 4 37 0 40 -4 3 -4 21 0 40 4 19 4 37 -1 40 -4 3 -4 17 1 30 6
17 6 25 -1 25 -6 0 -7 6 -3 12 11 18 12 48 2 48 -5 0 -6 5 -2 12 11 17 11 58
1 58 -5 0 -4 7 3 15 10 12 10 15 -1 15 -9 0 -10 3 -4 8 13 9 16 42 4 42 -6 0
-5 10 2 21 8 16 8 20 -1 14 -9 -6 -9 -3 -1 12 7 14 7 23 -1 31 -9 9 -9 12 2
12 10 0 11 3 3 11 -8 8 -8 20 -3 35 7 16 6 24 -1 24 -8 0 -8 4 0 14 9 11 9 15
-1 19 -11 4 -11 6 0 6 9 1 10 6 3 20 -8 13 -5 28 10 57 13 25 19 53 17 76 -2
21 -1 38 3 38 3 0 5 12 3 28 -7 48 5 88 29 100 12 6 17 11 11 11 -7 1 -8 18
-4 51 4 33 3 50 -4 50 -6 0 -5 4 2 9 8 4 13 10 12 12 -3 9 20 59 28 59 4 0 6
21 5 47 -2 32 2 52 13 65 9 9 19 16 23 14 3 -2 5 25 4 61 -1 50 2 63 12 59 7
-2 16 2 19 10 3 8 1 14 -5 14 -6 0 -7 6 -2 12 12 20 12 38 1 38 -5 0 4 14 21
31 25 25 29 34 21 50 -7 13 -7 19 0 19 5 0 10 7 10 15 0 7 8 18 17 23 18 11
25 62 8 63 -5 0 6 8 25 16 19 9 30 18 23 20 -8 3 -9 12 -3 29 7 17 6 24 -3 24
-6 0 0 8 14 18 22 14 25 21 17 42 -5 13 -6 21 -2 18 10 -10 47 29 39 41 -3 6
0 11 7 11 9 0 9 3 -2 10 -8 5 -10 10 -4 10 7 0 19 12 29 26 11 18 12 24 4 18
-11 -6 -12 -5 -2 8 7 8 9 19 5 23 -4 5 -1 5 6 1 7 -4 12 -1 12 9 0 9 4 14 9
11 5 -3 12 1 15 10 4 10 2 13 -7 8 -9 -6 -9 -5 0 8 7 8 10 18 6 21 -3 4 1 7
10 7 15 0 22 11 18 33 0 4 4 7 10 7 5 0 7 5 3 12 -4 6 -3 9 2 5 5 -3 17 1 27
8 12 8 14 15 7 20 -6 4 1 20 19 42 17 20 28 40 25 44 -2 4 4 10 15 14 13 4 17
12 14 25 -5 19 5 25 31 21 5 -1 6 4 3 11 -5 15 27 61 37 51 3 -4 6 -1 6 5 0 5
-6 12 -12 15 -8 2 -1 10 15 17 15 7 27 19 27 26 0 7 9 19 20 27 11 8 17 17 13
20 -3 4 -1 7 6 7 7 0 9 5 5 12 -4 6 -3 8 3 5 11 -7 45 28 36 37 -3 3 2 8 11
12 9 3 13 10 10 15 -3 5 0 9 6 9 6 0 8 5 4 12 -4 6 -3 8 4 4 6 -3 17 3 25 14
7 11 16 17 19 14 4 -3 9 4 13 16 8 25 88 110 104 110 6 0 11 5 11 11 0 14 52
64 63 61 4 -1 7 2 7 7 0 16 51 71 61 65 5 -3 9 1 9 8 1 18 85 109 94 101 4 -4
4 0 0 10 -4 11 -1 17 9 17 8 0 18 7 21 16 3 8 11 12 17 8 7 -4 9 -3 5 4 -3 6
3 17 14 25 11 7 17 17 12 22 -4 4 1 5 11 2 10 -4 16 -3 12 3 -7 11 30 51 39
43 3 -4 6 3 6 14 0 13 8 23 22 26 19 5 20 8 7 23 -12 15 -12 16 10 9 13 -4 22
-3 19 1 -2 5 7 20 20 34 14 14 21 18 17 10 -5 -9 -5 -12 1 -7 9 8 10 12 13 38
0 6 8 8 17 5 8 -3 12 -2 9 4 -3 6 2 10 12 10 15 0 16 2 3 10 -9 6 -10 10 -3
10 14 0 68 53 77 75 3 9 10 13 16 10 5 -3 10 1 10 10 0 9 9 19 20 22 11 3 17
9 15 14 -3 4 4 13 16 19 11 7 18 14 16 17 -3 3 9 19 26 36 18 17 31 37 29 44
-1 6 7 17 19 23 11 7 18 14 15 17 -3 3 4 14 15 24 12 10 19 25 16 32 -3 9 4
19 19 26 13 6 24 17 24 25 0 8 9 21 20 29 11 7 20 27 22 44 1 20 7 30 18 29 8
-1 14 6 14 17 -1 9 3 17 10 17 6 0 5 4 -3 9 -11 7 -9 10 7 15 21 7 39 36 21
36 -6 0 -6 8 1 21 7 11 18 18 25 15 9 -3 12 1 10 14 -2 11 0 22 4 25 5 2 7 16
6 29 -2 17 3 27 14 31 12 3 16 15 15 42 -2 38 20 68 41 55 5 -3 4 2 -4 11 -8
11 -9 17 -3 17 6 0 9 7 5 16 -3 8 3 25 15 37 11 12 22 38 24 57 2 23 8 34 16
32 8 -1 11 2 7 8 -3 5 -1 10 6 10 6 0 9 8 6 20 -3 11 -2 20 3 20 4 0 6 11 5
24 -2 17 3 26 18 31 14 4 17 8 9 12 -6 2 -9 10 -5 16 12 20 12 37 0 37 -7 0
-3 7 7 15 10 8 23 12 28 9 5 -3 8 -2 7 3 -1 4 0 10 1 13 8 21 6 40 -3 40 -7 0
1 12 17 26 23 21 26 28 15 35 -11 7 -12 9 0 9 9 0 11 7 8 21 -3 12 -3 18 0 15
10 -10 33 15 33 36 0 10 4 17 8 14 5 -3 9 1 9 9 0 8 -4 15 -9 15 -5 0 -3 6 4
14 7 8 17 11 22 8 5 -3 7 5 4 16 -4 12 -2 22 2 22 4 0 6 10 3 23 -3 12 -3 19
2 15 14 -13 34 20 36 60 2 23 7 38 12 35 14 -9 27 20 15 34 -8 9 -7 13 2 13 8
0 10 3 7 7 -10 9 14 34 26 26 6 -3 7 -1 3 5 -4 7 -2 12 5 12 10 0 10 3 2 11
-9 9 -8 16 4 28 9 9 20 17 25 17 4 1 11 2 14 3 4 0 1 8 -6 16 -9 10 -9 15 -1
15 6 0 11 9 11 21 0 11 5 17 10 14 18 -11 31 5 20 25 -8 15 -5 22 18 39 15 11
22 21 15 21 -7 0 -10 7 -7 15 4 8 10 13 14 10 4 -2 15 4 25 15 11 12 13 20 6
20 -7 0 -1 11 13 24 15 13 26 28 26 34 0 6 9 14 21 17 12 4 18 12 15 21 -3 8
1 14 9 14 7 0 17 9 20 20 4 11 10 18 14 15 5 -2 16 4 25 14 13 15 14 20 4 24
-8 4 -6 6 5 6 11 1 15 5 11 13 -5 8 -2 9 9 5 11 -4 17 -1 17 9 0 8 4 13 9 9 5
-3 12 -1 16 5 4 6 11 8 16 5 5 -4 9 0 9 7 0 7 9 19 20 26 15 9 20 9 20 1 0 -7
12 1 27 17 14 16 28 24 30 18 6 -17 55 -3 60 17 3 10 9 16 14 13 5 -3 9 -1 9
5 0 6 11 6 30 1 17 -5 30 -5 30 0 0 5 13 5 30 0 19 -5 30 -5 30 1 0 6 4 8 9 5
10 -6 35 20 44 47 4 9 2 17 -4 17 -6 0 -6 7 1 20 8 14 8 20 0 20 -7 0 -8 6 -2
17 9 15 -6 43 -22 44 -3 0 -19 4 -36 9 -17 5 -30 5 -30 0 0 -5 -13 -5 -30 0
-16 5 -30 6 -30 2 0 -4 -27 -7 -60 -7 -33 0 -60 4 -60 9 0 5 -7 3 -15 -4 -8
-7 -15 -10 -15 -7 0 10 125 132 132 129 5 -1 8 3 8 10 0 6 18 29 41 50 22 21
37 38 32 38 -4 0 6 12 22 28 16 15 33 26 37 25 4 -2 5 3 2 11 -3 8 5 21 18 30
12 9 19 16 14 16 -5 0 3 9 18 21 14 11 24 24 21 29 -3 4 2 11 11 14 9 4 14 13
10 21 -3 8 -1 15 5 15 6 0 7 5 4 10 -4 6 -3 10 2 9 22 -4 35 2 30 15 -3 8 5
18 19 25 14 6 22 16 19 21 -3 6 -2 10 3 10 6 0 8 10 4 22 -4 17 -2 20 12 15 9
-4 15 -3 11 2 -3 6 3 14 12 20 10 5 15 13 11 16 -4 4 2 17 13 28 13 14 15 23
8 28 -8 5 -8 8 0 14 9 5 9 10 0 21 -9 11 -9 14 1 14 9 0 10 3 1 13 -6 8 -7 17
-1 23 19 20 -15 42 -73 45 -31 2 -57 2 -57 -1 0 -3 -14 -5 -31 -6 -16 -1 -36
-7 -42 -14 -10 -10 -9 -11 3 -5 12 7 13 6 3 -7 -7 -8 -10 -18 -6 -21 3 -4 1
-7 -6 -7 -7 0 -9 -4 -6 -10 3 -5 -3 -10 -14 -10 -11 0 -23 -5 -27 -12 -4 -7
-3 -8 4 -4 21 13 13 -4 -13 -28 -13 -13 -22 -26 -18 -29 3 -4 1 -7 -5 -7 -7 0
-12 -7 -12 -15 0 -9 -6 -12 -17 -8 -12 5 -15 2 -11 -9 4 -10 -8 -27 -33 -49
-22 -19 -37 -39 -34 -46 2 -7 -1 -13 -9 -13 -7 0 -18 -11 -26 -24 -7 -14 -18
-22 -26 -19 -9 3 -14 -2 -14 -16 0 -12 -5 -21 -11 -21 -13 0 -59 -50 -59 -63
0 -5 -4 -6 -8 -3 -5 3 -15 -6 -22 -20 -8 -13 -20 -22 -27 -20 -7 3 -13 2 -13
-3 0 -17 -62 -72 -75 -67 -9 3 -12 0 -9 -9 6 -14 -29 -39 -40 -28 -3 3 -6 -1
-6 -9 0 -9 -9 -18 -21 -21 -12 -3 -18 -10 -15 -16 4 -5 -3 -12 -14 -16 -11 -3
-20 -11 -20 -16 0 -5 -6 -9 -14 -9 -7 0 -16 -10 -19 -22 -5 -18 -8 -19 -21 -8
-12 9 -16 9 -16 1 0 -7 -4 -9 -10 -6 -9 6 -14 -8 -11 -28 1 -5 -4 -7 -11 -5
-7 3 -23 -7 -35 -20 -13 -14 -23 -20 -23 -13 0 6 -5 11 -11 11 -5 0 -8 -4 -5
-8 7 -11 -30 -42 -49 -42 -9 0 -18 -7 -22 -16 -3 -8 -11 -13 -18 -10 -8 3 -25
-6 -39 -19 -14 -13 -26 -21 -26 -17 0 4 -5 0 -11 -8 -8 -11 -12 -12 -16 -2 -8
19 -21 14 -25 -10 -2 -18 -9 -23 -30 -22 -25 1 -32 -6 -30 -27 1 -6 -48 -19
-64 -18 -3 0 -13 -8 -22 -18 -10 -10 -27 -17 -39 -15 -12 2 -30 -1 -40 -7 -14
-8 -15 -10 -3 -11 26 -1 -11 -20 -38 -20 -13 0 -36 -9 -50 -21 -15 -12 -28
-16 -30 -10 -3 8 -9 8 -23 0 -11 -5 -23 -8 -28 -5 -4 3 -13 -6 -20 -20 -7 -17
-17 -24 -26 -20 -8 3 -15 0 -15 -6 0 -7 -5 -6 -15 2 -12 10 -15 10 -15 0 0
-10 -4 -9 -17 1 -10 7 -15 10 -11 5 10 -11 -20 -40 -43 -41 -11 -1 -19 1 -19
5 0 17 -48 2 -74 -22 -20 -20 -33 -25 -44 -19 -8 5 -27 5 -42 1 -15 -4 -33 -4
-41 0 -8 6 -19 1 -31 -12 -14 -16 -26 -19 -63 -16 -25 2 -45 0 -45 -5 0 -4 -9
-3 -20 3 -14 8 -20 8 -20 0 0 -8 -6 -8 -20 0 -12 6 -20 7 -20 1 0 -5 -8 -8
-17 -7 -10 2 -24 -6 -32 -16 -7 -11 -19 -17 -27 -14 -8 3 -14 0 -14 -7 0 -8
-4 -6 -10 3 -8 12 -10 12 -10 1 0 -11 -3 -11 -15 -1 -9 8 -15 8 -15 2 0 -7
-10 -8 -30 -2 -17 5 -30 5 -30 0 0 -5 -13 -5 -30 0 -16 5 -30 6 -30 2 0 -4
-36 -7 -80 -7 -74 0 -79 1 -85 23 -6 24 9 62 26 62 6 0 6 7 -1 20 -7 14 -7 20
0 20 5 0 9 3 8 8 -2 4 0 8 5 9 23 7 34 29 26 56 -5 16 -4 25 2 22 5 -4 9 1 9
9 0 9 5 16 10 16 6 0 11 10 11 23 1 20 2 20 6 2 6 -24 23 -37 41 -30 6 2 12 1
12 -3 0 -4 9 -8 20 -8 11 0 20 4 20 8 0 5 10 4 21 -3 16 -8 20 -8 14 1 -6 9
-3 9 13 1 15 -8 23 -7 32 4 7 8 9 15 4 15 -5 0 3 8 19 18 15 10 24 22 20 25
-3 4 -2 7 4 7 6 0 9 12 7 26 -1 14 0 23 3 20 3 -3 14 -1 25 5 14 8 17 14 9 23
-8 10 -7 17 6 27 14 12 16 12 8 0 -6 -10 -4 -12 4 -7 7 5 10 10 7 13 -7 8 23
63 34 63 6 0 10 9 10 20 0 11 7 20 15 20 8 0 15 5 15 11 0 5 5 7 10 4 6 -3 10
-2 10 4 0 5 -6 12 -12 14 -8 4 -4 8 10 12 12 4 22 13 22 20 0 7 20 34 45 61
25 26 45 52 45 57 0 6 3 7 6 4 8 -7 44 31 44 45 0 5 4 7 9 4 11 -7 33 19 23
28 -4 4 -2 6 4 4 7 -2 23 9 37 24 19 20 27 24 37 15 10 -9 11 -9 6 1 -4 6 -3
12 3 12 6 0 7 7 4 17 -4 11 -3 14 5 9 7 -4 12 -2 12 4 0 6 4 8 10 5 5 -3 17 3
27 14 9 11 21 18 25 14 5 -3 12 4 15 16 3 12 11 21 18 21 8 0 21 7 29 16 9 8
25 17 36 19 25 5 51 30 42 40 -4 5 2 5 12 1 13 -4 27 1 42 15 12 11 27 18 33
14 6 -3 11 -1 11 4 0 6 7 11 15 11 7 0 18 7 23 17 6 10 16 14 26 10 9 -4 16
-2 16 3 0 6 7 10 15 10 8 0 14 3 14 8 -3 19 2 23 16 12 12 -10 15 -10 15 0 0
10 3 10 15 0 11 -9 15 -9 15 -1 0 7 5 9 10 6 6 -3 10 4 10 15 0 15 5 20 14 17
7 -3 19 0 26 6 10 9 11 9 5 -1 -6 -11 -3 -12 12 -3 11 6 23 7 27 3 4 -3 4 1 1
9 -8 21 33 39 62 28 14 -5 25 -4 29 3 5 7 2 8 -7 4 -8 -4 -6 -1 4 7 9 8 17 20
17 27 0 10 3 10 15 0 8 -7 20 -8 27 -4 7 5 20 7 29 6 9 -2 19 4 23 13 3 9 10
13 16 10 5 -3 10 -2 10 4 0 6 11 6 30 1 20 -6 30 -5 30 2 0 6 3 8 6 5 4 -4 15
3 25 14 13 16 27 20 49 17 17 -3 30 0 30 6 0 6 5 4 10 -4 9 -13 10 -13 10 0 0
13 1 13 10 0 8 -12 10 -12 10 -1 0 8 3 11 7 7 4 -3 13 4 20 16 7 13 12 17 13
10 0 -9 5 -10 19 -3 10 6 21 7 25 4 10 -10 56 -10 56 0 0 5 5 7 12 5 7 -3 23
7 35 20 13 14 26 22 30 19 3 -4 12 -2 20 4 9 8 13 8 13 1 0 -6 9 -9 20 -7 11
2 20 -2 20 -8 0 -7 4 -6 10 3 5 8 10 10 10 3 0 -12 17 -12 38 0 6 5 12 5 12 2
0 -3 11 7 25 22 13 15 25 23 25 16 0 -12 18 -12 39 1 8 5 16 4 21 -4 6 -9 12
-9 29 -1 11 7 21 8 21 3 0 -5 7 -9 15 -9 8 0 15 3 15 7 0 4 11 6 25 5 14 -2
25 1 25 6 0 6 5 7 10 4 6 -3 10 0 10 8 0 8 7 17 15 21 8 3 15 1 15 -3 0 -11
19 -9 39 3 7 5 16 5 20 -1 7 -10 62 -10 79 1 7 4 12 4 12 -1 0 -10 52 -9 68 1
7 4 17 4 22 1 6 -4 9 -1 8 7 -2 8 7 13 25 13 15 -1 27 2 27 6 0 3 18 3 40 -1
22 -4 40 -4 40 1 0 4 14 4 30 -1 19 -5 30 -5 30 1 0 6 8 5 20 -1 11 -6 20 -7
20 -3 0 4 22 7 50 6 39 -1 53 2 63 18 8 10 17 16 20 12 4 -3 7 -1 7 6 0 7 5 9
12 5 15 -9 93 -5 123 6 20 8 22 6 17 -13 -3 -12 -7 -16 -10 -9 -6 19 -22 14
-22 -8 0 -10 -9 -24 -20 -30 -11 -6 -20 -17 -20 -25 0 -19 -36 -56 -46 -47 -3
4 -2 -3 4 -15 10 -17 9 -22 -6 -29 -9 -4 -21 -6 -25 -5 -5 1 -6 -3 -2 -9 3 -5
2 -10 -3 -10 -6 0 -8 -10 -5 -21 4 -14 0 -26 -11 -34 -9 -7 -16 -17 -15 -21 1
-5 -1 -16 -4 -24 -3 -8 -7 -24 -9 -35 -2 -11 -10 -20 -17 -20 -9 0 -15 -11
-15 -27 -1 -16 3 -28 8 -28 6 0 0 -7 -12 -16 -12 -8 -20 -20 -17 -25 4 -5 2
-9 -3 -9 -5 0 -9 -8 -9 -17 1 -57 -3 -72 -18 -67 -11 5 -13 2 -9 -10 3 -9 1
-16 -4 -16 -7 0 -8 -10 -3 -27 5 -21 3 -32 -11 -45 -10 -10 -21 -18 -25 -19
-15 -1 -16 -9 -3 -9 11 0 11 -3 2 -12 -16 -16 -15 -31 1 -23 6 4 3 -1 -7 -9
-11 -9 -17 -16 -13 -16 4 0 3 -9 -3 -20 -6 -11 -15 -18 -19 -16 -4 3 -8 -1 -8
-9 0 -8 5 -15 11 -15 6 0 4 -5 -4 -10 -9 -6 -11 -10 -3 -10 7 0 10 -7 6 -15
-3 -9 -8 -14 -10 -11 -7 7 -32 -18 -26 -26 2 -5 0 -8 -5 -8 -6 0 -8 -9 -5 -19
3 -13 -2 -24 -16 -32 -14 -9 -17 -17 -10 -25 7 -8 5 -17 -6 -28 -9 -9 -14 -16
-10 -16 4 0 -1 -7 -10 -16 -9 -10 -14 -25 -12 -35 3 -13 0 -16 -11 -12 -10 4
-13 2 -8 -5 4 -8 1 -12 -10 -12 -10 0 -14 -3 -11 -7 4 -3 2 -12 -4 -20 -9 -10
-8 -13 1 -13 10 0 10 -3 0 -15 -10 -12 -10 -15 0 -15 10 0 10 -3 0 -15 -10
-12 -10 -15 0 -15 10 0 10 -3 1 -14 -10 -11 -8 -17 6 -25 14 -8 15 -10 3 -11
-13 0 -13 -1 0 -10 11 -7 11 -10 2 -10 -10 0 -10 -3 0 -14 14 -16 29 -16 40
-1 5 6 8 5 8 -2 0 -9 7 -10 25 -3 14 5 25 6 25 1 0 -15 42 -5 52 12 5 10 14
15 19 11 5 -3 9 -2 8 3 -4 21 2 33 17 33 8 0 12 5 9 10 -3 6 0 10 7 10 10 0
10 2 0 8 -9 6 -6 12 12 22 14 7 23 17 20 21 -2 4 0 10 5 14 6 3 7 13 4 22 -4
11 -3 14 5 9 7 -4 12 -1 12 9 0 9 4 14 9 11 10 -7 9 20 -2 30 -7 8 17 34 32
34 6 0 11 16 11 35 0 25 4 35 16 35 10 0 15 8 14 23 -3 33 11 67 27 67 8 0 11
5 8 10 -3 6 -1 10 6 10 8 0 8 4 -1 15 -10 12 -10 15 0 15 7 0 10 7 6 15 -3 8
-1 15 5 15 6 0 7 5 3 12 -5 8 -2 9 11 5 14 -6 16 -3 12 13 -3 11 0 20 6 20 6
0 7 3 4 7 -4 3 -1 13 6 21 9 13 9 14 0 8 -7 -4 -13 -2 -13 3 0 6 5 11 11 11 5
0 8 4 5 9 -4 5 2 7 13 4 18 -4 20 8 11 52 -5 21 0 36 11 30 6 -4 13 2 16 14 3
12 10 21 15 21 6 0 4 8 -3 17 -8 9 -9 14 -3 10 7 -4 15 0 18 9 4 10 2 13 -7 9
-6 -4 -4 0 5 8 10 7 18 28 20 45 1 22 9 34 28 43 15 7 20 13 13 16 -7 3 -13 9
-13 14 0 6 5 7 10 4 6 -3 10 0 10 8 0 8 7 18 16 21 9 3 14 12 11 20 -3 8 5 19
18 26 14 7 22 17 19 22 -3 4 0 8 6 8 6 0 8 5 5 10 -3 6 1 13 9 16 9 3 14 10
11 15 -3 4 4 13 15 19 11 6 20 17 20 25 0 9 9 15 22 15 12 0 19 2 16 5 -8 8
52 66 61 60 5 -2 18 5 30 16 12 12 29 18 37 15 7 -3 14 -1 14 5 0 6 5 7 10 4
6 -3 10 -1 10 5 0 6 4 8 10 5 6 -4 7 1 3 11 -5 14 -2 16 20 12 15 -3 27 -2 27
2 0 3 22 4 48 0 41 -5 51 -3 72 17 24 22 24 22 42 3 11 -11 32 -20 48 -20 21
0 30 -5 30 -16 0 -9 5 -12 12 -8 7 5 8 3 3 -5 -4 -8 -21 -11 -41 -9 -19 2 -34
0 -34 -4 0 -5 -9 -4 -20 2 -11 6 -20 7 -20 2 0 -5 -13 -7 -30 -4 -25 4 -30 1
-30 -16 0 -12 -5 -24 -12 -28 -7 -5 -8 -3 -3 6 6 10 4 12 -9 7 -10 -4 -38 -7
-62 -7 -28 0 -43 -4 -39 -10 3 -5 3 -10 -2 -11 -4 0 -17 -3 -28 -5 -11 -3 -26
-6 -32 -6 -7 -1 -11 -3 -9 -6 8 -7 -46 -52 -56 -46 -4 3 -8 2 -7 -3 4 -21 -2
-33 -16 -33 -8 0 -12 -6 -9 -14 3 -8 -4 -16 -19 -20 -13 -3 -24 -12 -25 -21
-1 -8 -3 -22 -4 -30 -1 -8 -7 -15 -15 -15 -7 0 -13 -6 -14 -12 -2 -37 -19 -80
-19 -49 0 7 -4 9 -10 6 -5 -3 -10 -18 -10 -33 0 -16 -8 -34 -20 -42 -14 -10
-17 -17 -8 -27 7 -9 7 -13 -1 -13 -7 0 -9 -4 -6 -10 3 -5 1 -10 -5 -10 -18 0
-40 -27 -40 -49 0 -12 -6 -21 -14 -21 -7 0 -16 -9 -19 -20 -3 -11 -1 -18 4
-14 5 3 6 -2 3 -10 -3 -9 -10 -16 -15 -16 -5 0 -15 -13 -23 -29 -12 -22 -12
-31 -3 -41 9 -10 9 -12 -3 -8 -8 3 -21 -1 -28 -8 -8 -9 -9 -14 -2 -14 8 0 8
-6 0 -20 -6 -11 -15 -18 -21 -15 -5 4 -9 -1 -9 -9 0 -9 -5 -16 -10 -16 -7 0
-7 -6 0 -20 8 -14 8 -20 0 -20 -8 0 -8 -6 0 -20 6 -11 7 -20 3 -20 -4 0 -8
-18 -8 -40 0 -22 4 -40 8 -40 5 0 6 -4 3 -9 -3 -5 8 -11 24 -13 17 -3 30 -1
30 3 0 4 14 4 30 -1 17 -5 30 -5 30 0 0 4 9 6 21 3 15 -4 22 0 26 16 5 19 15
25 36 22 8 -1 12 7 21 52 4 15 10 25 15 22 5 -2 11 2 15 10 3 8 0 15 -7 15 -8
0 -6 4 3 10 13 9 13 10 0 10 -8 0 0 9 18 20 20 12 30 25 26 32 -4 6 1 17 11
24 10 7 15 20 12 29 -4 8 -2 15 3 15 6 0 9 5 8 12 -2 7 4 12 12 13 10 0 16 12
18 33 3 25 10 35 30 43 21 8 23 12 12 19 -10 6 -11 10 -3 10 7 0 10 7 7 15 -4
10 0 15 10 15 9 0 20 10 25 23 12 31 89 109 101 102 5 -3 7 0 4 8 -3 10 5 18
26 26 18 6 29 15 25 21 -4 7 3 9 19 6 15 -3 26 0 26 6 0 6 6 5 16 -2 8 -8 14
-9 13 -4 0 5 2 19 6 32 6 18 10 20 21 11 11 -9 14 -8 14 2 0 10 3 10 11 2 8
-8 20 -8 36 -2 13 5 22 6 20 1 -3 -4 8 -7 23 -7 16 0 26 2 24 4 -7 8 36 32 46
26 6 -3 10 0 10 7 0 9 3 9 10 -2 6 -9 10 -10 10 -3 0 8 9 9 30 3 19 -5 30 -5
30 1 0 6 8 5 20 -1 14 -7 20 -7 20 0 0 5 7 10 16 10 8 0 12 5 9 10 -3 6 0 10
7 10 11 0 11 2 0 9 -10 6 -10 10 3 21 8 7 15 19 15 26 0 8 4 14 9 14 6 0 6 12
1 30 -5 17 -5 30 0 30 5 0 5 13 0 30 -5 17 -6 30 -2 30 4 0 7 29 7 64 0 35 -2
64 -5 64 -21 -2 -28 5 -25 27 1 14 -2 25 -7 25 -5 0 -7 4 -4 8 2 4 -9 18 -25
31 -16 13 -26 28 -22 34 3 5 1 7 -4 4 -11 -7 -56 27 -47 35 3 3 -2 8 -11 11
-8 4 -15 1 -15 -5 0 -7 -5 -6 -15 2 -10 8 -15 9 -15 1 0 -7 -7 -7 -25 1 -14 6
-25 18 -25 26 0 12 -3 12 -16 1 -10 -8 -18 -9 -22 -2 -8 12 -41 11 -61 -1 -7
-5 -16 -4 -20 1 -7 10 -62 10 -79 -1 -7 -4 -12 -3 -12 3 0 7 -8 7 -25 1 -14
-5 -25 -6 -25 -1 0 8 -21 8 -40 1 -3 -1 -8 -2 -12 -1 -7 1 -11 -12 -10 -29 0
-3 -24 -3 -55 -2 -45 3 -58 0 -74 -17 -11 -12 -32 -21 -49 -21 -19 0 -33 -7
-40 -21 -7 -12 -18 -18 -26 -15 -8 3 -14 1 -14 -4 0 -6 -8 -10 -17 -10 -14 0
-15 -2 -4 -9 10 -6 10 -10 1 -16 -6 -4 -14 -5 -17 -2 -4 5 -27 -11 -59 -41 -8
-8 -12 -17 -9 -21 2 -5 -7 -13 -21 -20 -15 -6 -22 -16 -18 -23 4 -7 3 -8 -5
-4 -6 4 -19 2 -28 -6 -15 -12 -15 -11 -5 9 9 16 9 23 -1 26 -9 4 -9 6 0 6 9 1
10 8 3 26 -6 16 -6 25 1 25 6 0 6 6 -1 19 -7 14 -6 21 3 24 7 3 1 9 -13 15
-14 5 -26 6 -28 3 -1 -4 -25 -4 -52 -1 -28 4 -50 3 -50 -2 0 -5 -9 -4 -20 2
-12 6 -20 7 -20 1 0 -6 -11 -6 -30 -1 -16 5 -30 5 -30 1 0 -5 -18 -5 -40 -1
-22 4 -40 4 -40 -1 0 -4 -13 -4 -30 1 -19 5 -30 5 -30 -1 0 -6 -8 -5 -20 1
-11 6 -20 7 -20 2 0 -5 -22 -6 -50 -2 -27 4 -50 3 -50 -1 0 -4 -9 -5 -21 -2
-11 3 -31 1 -45 -6 -13 -6 -35 -16 -48 -22 -14 -7 -34 -9 -45 -6 -12 3 -21 1
-21 -3 0 -5 -13 -5 -30 0 -17 5 -30 5 -30 0 0 -5 -13 -5 -30 0 -16 5 -30 5
-30 1 0 -4 -27 -4 -60 -1 -33 3 -60 3 -60 0 0 -4 -22 -4 -49 0 -28 3 -48 3
-45 -2 9 -14 -59 -37 -78 -27 -11 6 -18 5 -21 -4 -4 -9 -6 -8 -6 2 -1 11 -4
11 -16 1 -8 -7 -15 -8 -15 -3 0 5 -9 9 -20 9 -11 0 -20 -5 -20 -11 0 -5 -5 -3
-10 5 -8 12 -11 13 -19 1 -5 -8 -11 -9 -15 -3 -7 12 -46 4 -46 -10 0 -5 -6
-16 -14 -23 -10 -10 -16 -11 -25 -2 -8 8 -11 8 -11 -2 0 -11 -3 -11 -15 -1
-12 10 -15 10 -15 0 0 -10 -3 -10 -15 0 -12 10 -15 10 -15 0 0 -10 -3 -10 -15
0 -12 10 -15 10 -15 0 0 -9 -4 -9 -13 -2 -15 13 -42 -1 -33 -17 4 -7 0 -11
-12 -11 -10 0 -22 -3 -25 -7 -10 -9 -66 -10 -60 0 2 4 0 7 -6 7 -5 0 -13 -5
-17 -11 -4 -8 -9 -7 -15 2 -7 11 -9 10 -9 -4 0 -11 -4 -15 -12 -11 -8 5 -9 2
-4 -12 4 -10 4 -15 1 -12 -4 4 -18 3 -32 -3 -13 -5 -22 -5 -19 0 3 4 -7 6 -22
4 -15 -2 -33 -5 -39 -5 -7 -1 -13 -11 -13 -22 0 -12 -4 -16 -8 -11 -8 11 -62
15 -62 4 0 -4 -8 -6 -17 -5 -11 0 -17 -5 -15 -15 1 -12 -9 -16 -44 -18 -34 -1
-52 -8 -65 -24 -10 -12 -18 -17 -19 -12 0 6 -13 11 -29 10 -16 0 -27 -3 -24
-7 2 -5 0 -8 -6 -8 -5 0 -13 -9 -16 -20 -5 -16 -10 -18 -25 -10 -15 8 -25 4
-49 -21 -17 -17 -31 -26 -31 -20 0 6 -5 11 -11 11 -5 0 -7 -5 -3 -11 4 -7 -1
-7 -16 1 -13 7 -20 8 -16 2 3 -6 2 -13 -4 -17 -6 -4 -7 -11 -4 -17 4 -7 2 -8
-4 -4 -7 4 -12 1 -12 -6 0 -10 -2 -10 -9 1 -6 9 -11 10 -15 2 -4 -6 -12 -9
-17 -5 -5 3 -8 0 -7 -8 2 -8 -6 -13 -19 -12 -13 0 -23 -3 -23 -8 0 -5 -5 -6
-10 -3 -6 4 -10 3 -9 -2 4 -23 -2 -35 -16 -29 -8 3 -15 1 -15 -4 0 -6 -3 -9
-7 -9 -18 3 -34 -2 -30 -8 3 -5 -1 -14 -9 -21 -11 -10 -14 -10 -15 0 0 7 -5 3
-11 -10 -6 -13 -17 -21 -23 -18 -6 2 -20 -7 -30 -20 -9 -13 -21 -21 -26 -18
-5 3 -9 0 -9 -6 0 -6 -5 -8 -12 -4 -7 5 -9 2 -5 -9 4 -11 -3 -18 -24 -26 -16
-5 -29 -13 -29 -16 0 -3 5 -3 10 0 6 3 10 3 10 0 0 -3 -14 -11 -31 -17 -20 -7
-27 -13 -19 -18 9 -5 5 -10 -11 -16 -13 -4 -28 -7 -33 -6 -5 2 -6 -4 -3 -13 4
-8 2 -15 -4 -15 -6 0 -17 -7 -25 -15 -11 -10 -11 -15 -3 -15 6 0 -1 -10 -17
-22 -16 -13 -31 -26 -32 -30 -2 -5 -8 -6 -12 -3 -5 3 -7 -4 -5 -16 2 -12 2
-19 -2 -16 -9 10 -44 -13 -38 -24 4 -5 1 -9 -5 -9 -6 0 -9 -3 -7 -7 7 -11 -19
-33 -29 -25 -4 4 -4 2 -1 -5 4 -6 -5 -21 -20 -33 -16 -12 -21 -18 -13 -14 12
7 13 5 3 -8 -7 -8 -10 -18 -6 -21 3 -4 1 -7 -5 -7 -5 0 -17 -3 -25 -6 -10 -4
-14 2 -14 20 0 16 6 28 19 32 11 3 17 12 14 20 -3 8 -2 14 2 14 4 0 7 17 6 37
-1 29 5 43 25 60 14 13 21 23 14 23 -6 0 -10 8 -8 18 13 61 17 72 28 69 7 -1
12 9 12 26 -1 15 2 27 5 27 3 0 5 16 4 35 -1 19 1 33 5 31 4 -3 12 4 19 15 10
15 10 19 0 19 -8 0 -9 3 -3 8 13 9 14 62 0 62 -5 0 1 6 14 13 13 6 23 16 22
21 -2 5 3 13 11 17 10 7 10 9 0 9 -10 0 -10 5 -1 21 9 17 8 23 -2 30 -11 7
-11 9 -1 9 7 0 11 4 8 9 -3 5 1 12 10 15 8 3 12 10 9 16 -3 5 -2 10 3 10 6 0
8 9 5 20 -3 11 0 20 6 20 5 0 8 6 5 14 -6 16 24 49 37 40 13 -7 7 19 -6 28 -6
5 -6 11 2 19 6 6 9 18 6 25 -3 8 2 17 11 20 9 3 13 10 10 15 -3 5 0 9 6 9 7 0
8 6 2 17 -7 12 -3 22 14 37 13 12 25 35 27 54 1 18 9 37 16 41 7 4 13 15 15
24 1 9 12 25 24 35 12 11 19 22 15 26 -4 3 14 25 40 47 26 23 44 45 42 50 -3
4 4 10 15 14 11 3 20 11 20 17 0 6 3 9 6 6 3 -4 21 9 41 28 36 35 49 43 37 22
-4 -7 5 -2 19 11 15 13 33 21 41 18 9 -4 16 -1 16 6 0 8 4 6 10 -3 7 -11 10
-11 10 -2 0 8 5 10 12 6 8 -5 9 -2 5 10 -4 10 -3 15 3 11 6 -3 10 -1 10 5 0 6
5 8 10 5 6 -3 10 -2 10 4 0 6 11 6 30 1 17 -5 30 -6 30 -2 0 4 20 6 44 4 35
-3 49 1 66 18 12 12 25 18 29 14 10 -14 31 -15 31 -1 0 8 4 7 10 -3 5 -8 10
-12 10 -7 0 4 10 -3 22 -15 13 -13 23 -17 25 -11 3 8 14 8 34 3 16 -5 29 -5
29 0 0 5 13 5 30 0 17 -5 30 -5 30 -1 0 4 16 5 35 3 19 -2 35 -8 35 -13 0 -5
14 -15 30 -24 23 -12 30 -12 30 -3 0 9 3 9 11 -2 8 -12 12 -12 16 -2 4 10 8
10 19 1 10 -8 14 -8 14 0 0 8 5 8 19 -1 11 -7 18 -15 15 -19 -2 -4 10 -6 26
-5 17 1 30 -2 30 -7 0 -4 8 -6 19 -2 22 7 53 -4 46 -16 -3 -4 4 -13 16 -19 17
-10 20 -9 13 2 -6 11 -5 11 9 -1 9 -7 17 -9 17 -4 0 5 9 9 19 9 11 0 17 -4 15
-8 -3 -4 2 -8 10 -8 9 0 16 -6 16 -14 0 -15 48 -28 56 -15 3 5 10 9 15 9 6 0
8 -4 5 -9 -3 -5 1 -12 10 -15 9 -3 12 -11 8 -18 -5 -8 -2 -9 9 -5 10 3 17 2
17 -4 0 -6 7 -6 20 1 15 8 20 8 20 -1 0 -8 5 -8 16 1 8 8 14 9 13 4 -4 -21 2
-32 21 -37 11 -3 20 0 20 6 0 7 5 5 10 -3 5 -8 10 -11 10 -6 0 5 9 1 20 -9 11
-10 18 -21 15 -24 -2 -4 11 -6 28 -5 44 4 67 -4 67 -23 0 -9 3 -13 7 -10 3 4
12 2 20 -4 7 -6 13 -7 13 -2 0 5 21 7 50 3 33 -4 50 -3 50 4 0 6 5 4 10 -4 8
-12 10 -12 10 -1 0 8 3 12 6 8 8 -7 28 12 37 36 4 10 2 17 -6 17 -8 0 -6 4 3
10 13 9 13 10 0 10 -13 0 -13 1 0 10 13 9 13 10 0 10 -13 0 -13 1 0 10 10 6
11 10 3 10 -9 0 -10 7 -3 26 7 17 7 23 0 19 -6 -3 -13 0 -16 9 -3 8 -12 12
-19 10 -7 -3 -20 5 -29 17 -15 22 -56 34 -56 17 0 -4 -9 -3 -19 4 -11 7 -18
15 -15 19 2 4 -3 12 -11 19 -9 7 -15 8 -15 2 0 -14 -43 -2 -53 15 -5 7 -12 11
-18 8 -5 -4 -9 -1 -9 5 0 7 -6 8 -19 0 -16 -8 -23 -6 -33 9 -8 11 -20 21 -28
23 -8 2 -18 8 -22 13 -5 6 -8 5 -8 -4 0 -11 -3 -11 -15 -1 -8 7 -15 9 -15 5 0
-4 -9 4 -21 19 -17 21 -24 24 -35 15 -10 -8 -14 -8 -14 -1 0 6 -7 9 -15 6 -9
-4 -15 0 -15 10 0 10 -9 16 -25 16 -14 0 -25 5 -25 11 0 8 -4 8 -14 0 -10 -9
-17 -6 -29 13 -16 24 -46 30 -59 11 -5 -6 -8 -5 -8 3 0 7 -5 10 -11 7 -5 -4
-20 4 -32 17 -22 23 -57 34 -57 17 0 -13 -33 2 -52 24 -13 14 -18 16 -18 6 0
-9 -3 -10 -8 -4 -8 13 -22 13 -41 1 -8 -5 -16 -4 -20 3 -4 6 -15 9 -23 6 -8
-3 -23 1 -32 10 -13 14 -19 15 -31 5 -11 -9 -15 -9 -15 -1 0 9 -5 9 -21 0 -15
-8 -19 -8 -15 0 5 8 0 8 -18 1 -18 -7 -26 -6 -26 1 0 8 -4 8 -13 1 -8 -7 -18
-7 -27 -2 -8 5 -21 5 -31 -1 -10 -5 -20 -5 -23 -1 -6 10 -36 9 -54 -2 -7 -4
-12 -2 -12 4 0 8 -6 7 -21 -1 -15 -8 -19 -8 -15 0 5 8 0 8 -18 1 -18 -7 -26
-6 -26 1 0 8 -5 7 -15 -1 -12 -10 -15 -10 -15 0 0 10 -3 10 -15 0 -12 -10 -15
-10 -15 0 0 10 -3 10 -15 0 -12 -10 -15 -10 -15 0 0 10 -3 10 -14 1 -11 -9
-15 -9 -18 1 -4 10 -8 10 -21 -1 -12 -9 -17 -10 -17 -2 0 9 -5 9 -21 0 -15 -8
-19 -8 -15 0 5 8 0 8 -18 1 -18 -7 -26 -6 -26 1 0 7 -6 6 -17 -2 -11 -10 -14
-10 -9 -1 9 14 7 15 -16 1z m-601 -1635 c-3 -3 -12 -4 -19 -1 -8 3 -5 6 6 6
11 1 17 -2 13 -5z"/>
<path d="M6390 11141 c0 -6 4 -13 10 -16 6 -3 7 1 4 9 -7 18 -14 21 -14 7z"/>
<path d="M5030 10839 c0 -5 5 -7 10 -4 6 3 10 8 10 11 0 2 -4 4 -10 4 -5 0
-10 -5 -10 -11z"/>
<path d="M7719 9360 c-1 -3 -1 -8 0 -13 2 -12 -50 -28 -72 -21 -13 4 -17 2
-13 -5 9 -13 -16 -11 -25 3 -8 10 -45 -8 -76 -37 -13 -11 -23 -16 -23 -10 0
16 -27 10 -52 -11 -12 -10 -30 -16 -44 -13 -14 2 -25 -1 -28 -10 -3 -8 -10
-11 -16 -8 -6 4 -7 -1 -3 -10 5 -14 0 -16 -33 -13 -21 1 -37 0 -34 -4 9 -13
-33 -36 -61 -34 -15 1 -26 -2 -23 -6 3 -4 0 -8 -5 -8 -6 0 -10 -6 -9 -12 2 -8
-8 -13 -24 -13 -16 1 -28 -4 -28 -9 0 -5 -3 -7 -6 -3 -3 3 -16 -3 -27 -14 -14
-13 -23 -15 -28 -8 -5 8 -8 8 -13 0 -4 -6 -12 -8 -18 -5 -7 4 -8 2 -4 -4 4 -7
2 -12 -4 -12 -6 0 -9 -4 -6 -9 9 -14 -16 -20 -36 -9 -12 6 -18 5 -18 -3 0 -6
-6 -9 -14 -6 -8 3 -17 -1 -20 -9 -3 -9 -10 -12 -16 -9 -5 3 -10 1 -10 -5 0 -8
-6 -8 -20 0 -15 8 -20 8 -20 -1 0 -8 -5 -7 -17 2 -14 12 -16 12 -8 0 6 -11 4
-13 -8 -8 -9 3 -16 3 -16 -1 4 -26 -3 -34 -26 -30 -14 3 -25 2 -25 -3 0 -4
-13 -4 -30 1 -16 5 -30 6 -30 2 0 -4 -29 -6 -65 -5 -36 1 -65 -3 -65 -7 0 -5
-10 -12 -21 -15 -17 -6 -19 -9 -8 -16 12 -7 12 -9 0 -9 -11 0 -11 -3 -1 -15 8
-9 8 -15 2 -15 -7 0 -8 -10 -2 -30 6 -21 5 -30 -3 -30 -7 -1 -2 -9 10 -19 12
-10 20 -20 18 -22 -2 -2 8 -4 21 -4 13 0 24 5 24 10 0 6 5 3 10 -5 7 -11 10
-11 10 -2 0 10 5 10 20 2 15 -8 20 -8 20 2 0 8 3 9 8 3 8 -11 222 -14 222 -3
0 4 14 3 30 -2 17 -5 30 -5 30 -1 0 5 12 6 27 3 21 -4 32 1 50 24 14 18 23 23
23 14 0 -13 1 -13 10 0 6 9 10 10 10 3 0 -19 60 6 60 25 0 10 3 13 8 7 8 -12
32 -13 49 -2 6 4 13 3 15 -3 1 -5 18 4 36 21 17 16 32 25 32 18 0 -8 4 -8 15
1 8 7 15 8 15 3 0 -5 9 -9 19 -9 11 0 18 3 17 6 -2 3 8 16 22 30 13 14 22 19
18 13 -9 -16 -1 -16 25 -3 13 7 19 7 19 1 0 -7 9 -7 25 1 13 6 22 14 20 19 -6
9 34 23 42 15 4 -3 12 -1 20 5 9 9 13 8 13 0 0 -8 5 -9 19 -2 10 6 22 7 26 3
3 -4 5 0 3 8 -2 12 9 15 59 15 33 0 59 3 57 6 -8 13 36 41 55 36 11 -3 22 0
25 7 2 6 5 7 5 1 1 -6 27 -9 66 -7 60 3 66 2 89 -25 14 -15 26 -23 26 -16 0
18 39 3 45 -18 4 -10 12 -18 18 -16 7 1 11 -4 10 -10 -2 -7 4 -13 14 -13 9 0
14 -3 10 -6 -3 -3 5 -16 19 -29 13 -12 24 -30 24 -39 0 -20 25 -48 34 -39 3 4
6 -10 6 -30 0 -27 4 -37 16 -37 8 0 12 -4 9 -10 -3 -5 -1 -10 5 -10 6 0 8 -5
5 -11 -8 -13 3 -61 13 -55 13 8 27 -19 31 -58 3 -40 22 -70 37 -58 5 4 2 -1
-6 -11 -12 -16 -12 -20 1 -28 12 -7 12 -9 -1 -9 -9 0 -11 -3 -5 -8 13 -9 18
-35 5 -27 -5 3 -10 2 -10 -4 0 -5 5 -13 10 -16 6 -4 8 -11 4 -16 -7 -12 31
-51 40 -42 3 4 6 2 6 -4 0 -5 -3 -13 -7 -17 -11 -11 -12 -36 -2 -36 5 0 4 -10
-2 -22 -15 -27 -14 -28 1 -38 8 -5 9 -13 4 -21 -12 -20 -14 -39 -3 -39 5 0 4
-10 -2 -22 -15 -27 -14 -28 1 -38 8 -5 9 -13 4 -21 -12 -20 -14 -39 -3 -39 5
0 4 -10 -2 -22 -15 -27 -14 -28 1 -38 8 -5 9 -13 4 -21 -11 -19 -13 -49 -2
-49 5 0 6 -5 2 -12 -9 -14 -11 -78 -2 -78 3 0 1 -11 -5 -25 -7 -14 -15 -25
-19 -25 -5 0 -8 -12 -8 -26 0 -14 -5 -34 -10 -45 -8 -13 -7 -19 0 -19 7 0 8
-6 0 -19 -7 -14 -7 -22 0 -26 8 -5 7 -11 -1 -21 -9 -11 -9 -14 0 -14 9 0 9 -5
1 -20 -7 -13 -7 -20 -1 -20 7 0 7 -9 1 -25 -6 -16 -6 -25 1 -25 6 0 6 -7 -1
-20 -8 -15 -8 -20 1 -20 8 0 8 -4 -1 -15 -8 -10 -9 -15 -1 -15 7 0 8 -8 1 -25
-6 -16 -6 -25 1 -25 6 0 6 -6 1 -17 -5 -10 -7 -24 -5 -30 3 -7 0 -13 -6 -13
-6 0 -8 -7 -5 -15 5 -13 -5 -19 -27 -17 -10 1 -7 -33 4 -39 5 -4 6 -13 1 -20
-12 -20 -13 -53 -1 -61 7 -4 7 -11 -1 -21 -7 -7 -9 -17 -6 -20 3 -3 8 -23 10
-44 3 -21 6 -46 8 -55 2 -10 1 -18 -4 -18 -4 0 -4 -18 0 -40 4 -22 4 -40 0
-40 -4 0 -4 -18 0 -40 4 -22 4 -40 0 -40 -4 0 -4 -18 0 -40 4 -22 4 -40 0 -40
-8 0 0 -63 9 -70 19 -15 28 -48 19 -64 -6 -10 -6 -21 -2 -25 11 -7 14 -41 5
-41 -4 0 -8 -7 -8 -15 0 -8 4 -15 9 -15 5 0 4 -10 -3 -21 -8 -17 -8 -23 1 -29
7 -4 10 -12 6 -18 -7 -12 28 -54 39 -44 4 4 3 -2 -3 -13 -15 -29 -15 -37 -2
-45 8 -5 9 -13 4 -21 -12 -19 -14 -39 -4 -39 4 0 6 -9 3 -20 -5 -18 3 -24 27
-22 3 0 4 -26 2 -58 -3 -50 -1 -60 18 -73 17 -12 20 -22 17 -56 -3 -31 0 -44
12 -51 9 -5 12 -10 7 -10 -5 0 -1 -10 10 -22 13 -14 14 -19 4 -14 -12 6 -12 5
1 -6 11 -9 13 -21 8 -40 -4 -17 -3 -28 3 -28 6 0 8 -7 4 -15 -3 -8 -2 -14 2
-14 22 4 33 -3 28 -16 -3 -8 -2 -15 3 -15 4 0 6 -10 4 -22 -3 -14 4 -32 17
-45 11 -13 18 -23 14 -23 -3 0 -1 -7 6 -15 10 -12 10 -15 -1 -15 -12 0 -12 -2
0 -9 9 -6 9 -10 2 -12 -6 -2 -1 -16 14 -33 13 -16 22 -33 19 -38 -15 -24 -11
-61 7 -65 17 -5 23 -15 20 -35 0 -5 4 -8 9 -8 7 0 7 -6 1 -19 -8 -14 -5 -23
10 -40 11 -12 17 -26 14 -31 -3 -6 0 -10 7 -10 9 0 9 -3 -2 -10 -13 -9 -13
-10 0 -10 13 0 13 -1 0 -10 -13 -9 -13 -10 0 -10 13 0 13 -1 0 -10 -9 -6 -11
-10 -3 -10 7 0 10 -6 7 -14 -3 -9 5 -18 23 -24 15 -6 22 -11 14 -11 -11 -1
-11 -4 -1 -16 7 -8 8 -15 3 -15 -5 0 -7 -16 -5 -36 3 -25 10 -38 23 -41 10 -3
16 -9 13 -14 -3 -5 1 -9 8 -9 9 0 9 -3 -2 -10 -13 -9 -13 -10 0 -10 13 0 13
-1 0 -10 -13 -9 -13 -10 0 -10 12 0 12 -2 2 -9 -15 -9 -6 -61 10 -61 5 0 6 -4
3 -10 -3 -5 0 -7 8 -4 12 4 15 -8 16 -60 2 -89 3 -96 13 -90 4 3 8 0 8 -6 0
-6 5 -8 11 -4 8 4 8 0 0 -15 -8 -14 -8 -21 -1 -21 8 0 8 -6 0 -20 -7 -13 -7
-20 -1 -20 7 0 7 -9 1 -25 -6 -16 -6 -25 1 -25 6 0 6 -6 -1 -19 -13 -25 -13
-34 0 -26 6 3 10 -1 10 -10 0 -9 3 -14 8 -12 9 6 33 -19 25 -27 -9 -9 -9 -66
0 -66 5 0 5 -5 1 -11 -9 -16 -13 -79 -4 -79 4 0 6 -12 4 -27 -2 -16 4 -33 15
-42 11 -10 17 -27 15 -43 -1 -16 1 -28 5 -28 4 0 8 -7 8 -15 0 -8 -3 -12 -7
-10 -4 2 -7 -9 -6 -25 1 -17 5 -30 9 -30 4 0 3 -9 -3 -20 -7 -13 -7 -20 -1
-20 7 0 7 -9 0 -27 -7 -19 -6 -28 2 -33 8 -6 7 -9 -2 -13 -12 -5 -12 -6 0 -6
11 -1 11 -4 0 -18 -12 -15 -12 -16 1 -8 13 8 13 7 1 -9 -12 -14 -12 -19 -2
-26 9 -5 10 -13 5 -21 -12 -20 -14 -39 -3 -39 6 0 5 -8 -1 -20 -7 -13 -7 -20
-1 -20 7 0 7 -9 1 -25 -6 -16 -6 -25 1 -25 6 0 6 -8 -2 -21 -9 -17 -8 -23 2
-30 11 -7 11 -9 -1 -9 -9 0 -11 -3 -5 -8 12 -9 19 -36 7 -28 -5 3 -9 -8 -8
-24 1 -17 5 -30 9 -30 4 0 3 -9 -3 -20 -7 -13 -7 -20 -1 -20 7 0 7 -9 0 -27
-7 -20 -7 -29 2 -32 8 -2 7 -6 -2 -12 -12 -7 -12 -9 0 -9 11 0 11 -3 0 -17
-12 -15 -12 -16 1 -8 13 8 13 7 1 -9 -12 -15 -13 -19 -1 -26 10 -6 11 -12 4
-22 -6 -7 -10 -28 -8 -45 1 -18 -1 -31 -5 -28 -4 2 -15 -10 -25 -27 -14 -23
-16 -32 -6 -38 9 -5 9 -9 1 -14 -7 -5 -8 -13 -1 -25 5 -10 6 -21 3 -25 -11
-11 -12 -36 -2 -36 6 0 6 -8 -1 -19 -7 -14 -6 -21 3 -24 9 -4 9 -6 -1 -6 -7
-1 -10 -5 -7 -11 3 -5 0 -8 -7 -5 -7 3 -19 -4 -26 -16 -11 -17 -11 -20 0 -13
10 6 10 4 -1 -9 -9 -12 -10 -17 -2 -17 9 0 9 -5 1 -20 -7 -13 -7 -20 -1 -20 7
0 7 -9 1 -25 -6 -16 -6 -25 0 -25 6 0 2 -8 -7 -18 -10 -11 -21 -17 -24 -16 -3
2 -6 -3 -6 -11 0 -8 5 -12 10 -8 5 3 4 -4 -2 -16 -8 -14 -8 -21 -1 -21 7 0 8
-6 1 -19 -6 -10 -8 -21 -5 -24 3 -3 -3 -10 -14 -16 -20 -10 -37 -81 -20 -81
15 0 -16 -39 -36 -44 -16 -4 -17 -7 -6 -20 10 -13 10 -16 -1 -16 -11 0 -11 -2
1 -10 10 -6 11 -10 3 -10 -7 0 -13 -7 -13 -15 0 -7 -7 -18 -17 -23 -10 -6 -14
-16 -10 -26 4 -9 2 -16 -2 -16 -5 0 -7 -10 -3 -22 3 -12 1 -19 -4 -15 -6 3
-16 -3 -23 -15 -10 -16 -10 -19 1 -13 10 6 10 5 1 -5 -6 -7 -9 -19 -6 -26 3
-8 -6 -18 -23 -24 -19 -8 -24 -14 -16 -22 13 -13 -6 -61 -21 -51 -6 4 -8 0 -4
-10 3 -10 2 -17 -4 -17 -6 0 -7 -5 -4 -11 8 -11 -24 -51 -35 -44 -4 2 -7 -2
-7 -10 0 -8 4 -15 9 -15 4 0 8 -5 8 -11 0 -5 -4 -8 -9 -4 -5 3 -12 -4 -16 -15
-3 -11 -13 -20 -21 -20 -8 0 -14 -3 -13 -7 3 -18 -14 -52 -22 -47 -5 3 -9 1
-9 -5 0 -5 4 -11 10 -13 5 -1 -3 -14 -17 -28 -15 -14 -23 -19 -18 -11 5 10 4
12 -3 7 -7 -4 -12 -17 -12 -29 0 -12 -9 -28 -20 -35 -12 -7 -18 -17 -15 -22 3
-6 0 -10 -7 -10 -7 0 -19 -9 -26 -21 -11 -17 -11 -20 0 -14 7 4 1 -4 -14 -17
-22 -19 -25 -27 -15 -37 7 -7 8 -11 2 -10 -18 4 -45 -13 -45 -27 0 -8 -12 -19
-27 -25 -22 -8 -24 -12 -13 -19 13 -8 12 -10 -2 -10 -19 0 -41 -33 -30 -44 3
-4 -2 -4 -12 0 -12 5 -17 4 -13 -3 4 -6 -7 -21 -23 -33 -16 -12 -32 -31 -36
-42 -3 -11 -8 -17 -11 -14 -3 2 -29 -19 -57 -47 -29 -29 -63 -59 -74 -67 -16
-10 -18 -16 -9 -22 8 -5 4 -8 -11 -8 -15 0 -21 -4 -16 -12 4 -7 3 -8 -4 -4
-12 7 -22 1 -72 -47 -17 -16 -35 -25 -41 -21 -8 4 -9 3 -5 -4 3 -6 -3 -16 -14
-22 -11 -6 -18 -15 -15 -20 3 -4 -4 -6 -15 -3 -12 3 -20 0 -20 -6 0 -7 -4 -9
-10 -6 -6 4 -7 -1 -3 -11 3 -10 2 -15 -3 -12 -15 9 -54 -10 -54 -27 0 -8 -3
-14 -7 -14 -29 5 -43 -3 -44 -23 0 -13 -3 -17 -6 -11 -6 15 -33 3 -65 -29 -15
-15 -22 -17 -28 -8 -5 9 -9 9 -14 1 -4 -6 -12 -9 -17 -6 -5 3 -6 -1 -3 -9 6
-16 -29 -32 -46 -21 -5 3 -10 0 -10 -7 0 -9 -3 -9 -10 2 -8 13 -11 12 -16 -7
-6 -20 -46 -39 -63 -29 -4 3 -17 -3 -28 -14 -12 -10 -24 -16 -27 -13 -3 4 -6
0 -6 -8 0 -11 -2 -11 -10 1 -5 8 -10 10 -10 5 0 -7 -14 -9 -34 -7 -27 3 -35 0
-40 -16 -5 -15 -14 -19 -36 -18 -17 1 -30 -2 -30 -6 0 -5 -9 -4 -20 2 -14 8
-20 8 -20 0 0 -8 -6 -8 -20 0 -14 8 -20 8 -20 0 0 -8 -6 -8 -20 0 -14 7 -20 7
-20 0 0 -5 -5 -10 -11 -10 -6 0 -18 -7 -26 -16 -12 -11 -18 -12 -23 -4 -6 9
-13 9 -29 1 -16 -9 -21 -9 -21 0 0 9 -4 9 -14 0 -11 -10 -16 -8 -21 8 -5 16
-17 20 -65 23 -36 2 -60 -1 -60 -7 0 -5 -5 -3 -10 5 -9 13 -10 13 -10 0 0 -13
-1 -13 -10 0 -8 12 -10 12 -10 1 0 -9 -7 -6 -20 9 -11 12 -18 26 -16 29 3 4
-4 7 -15 7 -10 0 -19 -3 -19 -6 0 -3 -13 -5 -29 -5 -16 -1 -27 3 -25 7 3 5 -2
11 -10 14 -9 3 -13 11 -9 18 4 6 -1 5 -10 -3 -11 -8 -17 -9 -17 -3 0 6 -6 9
-14 6 -15 -6 -46 21 -46 39 0 7 -4 6 -10 -3 -7 -11 -10 -11 -10 -2 0 10 -5 10
-20 2 -15 -8 -20 -8 -20 2 0 9 -3 9 -12 0 -7 -7 -17 -8 -30 -1 -13 7 -18 6
-18 -2 0 -9 -3 -9 -14 0 -11 9 -15 9 -19 -1 -4 -10 -6 -10 -6 1 -1 11 -6 10
-21 -4 -16 -14 -20 -31 -20 -79 0 -34 5 -68 10 -76 5 -8 10 -11 10 -6 0 5 7 3
15 -4 10 -8 15 -9 15 -2 0 6 7 9 15 6 8 -3 14 -9 13 -12 -2 -21 4 -32 20 -32
9 0 26 -11 36 -25 11 -14 22 -22 25 -17 11 16 69 -7 76 -29 6 -17 9 -19 16 -8
7 12 9 11 9 -1 0 -13 1 -13 10 0 6 9 10 11 10 3 0 -7 7 -10 14 -7 8 3 25 -4
37 -15 17 -16 25 -18 31 -9 6 10 8 10 8 -1 0 -10 3 -11 14 -2 11 9 15 9 18 -1
4 -10 8 -10 21 1 10 7 17 9 17 4 0 -10 8 -12 55 -16 14 -1 25 -6 25 -10 0 -4
9 -3 20 3 11 6 20 7 20 3 0 -4 13 -8 30 -9 16 -1 27 3 24 8 -8 12 19 5 28 -7
5 -6 8 -4 8 5 0 12 2 12 9 1 7 -10 13 -11 30 -2 13 8 21 8 21 2 0 -7 9 -7 25
-1 16 6 25 6 25 -1 0 -6 7 -6 20 1 14 8 20 8 20 0 0 -8 6 -8 20 0 14 8 20 8
20 0 0 -8 6 -8 20 0 11 6 20 7 20 3 0 -4 13 -8 30 -9 16 -1 27 3 24 8 -8 12
19 5 28 -7 5 -6 8 -5 8 3 0 7 5 10 10 7 6 -3 10 -1 10 5 0 6 5 8 10 5 6 -3 10
-1 10 6 0 8 5 7 17 -2 20 -17 16 -17 36 0 12 9 17 10 17 2 0 -8 5 -9 19 -1 14
7 22 7 26 0 4 -7 16 -1 29 13 16 17 28 22 37 17 8 -6 16 -4 21 3 5 8 8 8 8 1
0 -19 52 -3 57 17 3 10 9 16 14 13 5 -3 9 -1 9 4 0 5 11 7 25 5 14 -3 31 1 40
11 9 9 28 19 43 22 47 10 52 13 47 26 -4 9 5 14 26 16 17 1 40 12 51 25 11 12
17 16 13 10 -8 -17 1 -16 30 3 14 9 22 21 18 27 -4 6 0 8 8 5 9 -3 26 3 40 13
13 10 32 19 42 19 11 0 21 9 24 20 3 11 9 17 14 14 5 -3 9 0 9 5 0 6 9 11 20
11 11 0 19 6 18 13 -2 6 5 11 15 11 9 -1 17 2 17 8 0 5 5 6 10 3 6 -3 10 3 10
15 0 12 4 19 9 16 5 -3 21 6 36 20 17 15 34 23 43 19 9 -3 13 -3 9 1 -8 8 31
54 45 54 10 0 24 11 67 52 16 15 32 24 36 20 3 -4 6 -2 5 3 -4 18 0 38 6 33 3
-4 27 16 54 43 27 27 54 49 61 49 7 0 10 3 7 6 -6 5 23 40 78 98 12 13 34 41
49 64 15 23 32 42 38 42 6 0 8 2 5 5 -3 3 12 24 34 47 22 23 37 47 34 55 -3 8
-2 12 3 9 9 -6 39 23 40 37 1 13 28 37 35 30 3 -4 6 -1 6 5 0 7 -4 12 -10 12
-5 0 -7 7 -4 15 3 8 11 13 17 12 7 -1 11 4 9 11 -1 6 3 12 8 12 6 0 10 6 8 14
-2 7 8 23 22 34 14 12 20 21 13 22 -6 0 -9 9 -6 19 3 13 10 18 21 14 10 -4 13
-2 8 5 -4 7 -1 15 8 18 8 3 12 12 9 20 -3 8 5 23 17 34 13 11 20 26 16 35 -3
8 -1 15 4 15 6 0 9 4 8 9 -2 4 8 18 22 29 17 15 20 21 10 22 -13 0 -13 1 0 10
9 6 11 10 3 10 -7 0 -10 7 -7 15 4 8 9 13 13 11 4 -3 12 4 19 14 7 12 8 21 2
25 -7 4 -7 13 0 24 5 10 6 22 2 26 -4 5 -2 6 3 2 6 -3 19 1 30 9 10 8 14 14 9
14 -15 0 -9 49 8 70 9 10 14 21 11 24 -4 3 -2 6 3 6 5 0 8 18 7 41 -1 30 2 39
12 35 12 -4 25 13 24 30 0 4 5 11 13 16 10 7 10 11 1 15 -9 3 -10 10 -3 24 7
12 7 19 1 19 -6 0 -8 7 -4 16 3 8 12 13 19 10 10 -4 14 12 16 67 2 53 6 71 16
69 8 -1 11 2 7 8 -3 5 -1 10 6 10 6 0 9 8 6 20 -3 11 -2 20 1 20 4 0 5 25 3
56 -3 59 13 108 33 97 6 -4 5 0 -1 9 -7 8 -10 18 -6 22 11 11 12 36 2 36 -6 0
-5 8 1 20 7 13 7 20 1 20 -7 0 -7 9 0 27 7 19 7 29 0 31 -6 2 -11 8 -11 13 0
6 4 7 10 4 5 -3 7 0 4 8 -3 8 2 22 11 31 9 9 12 16 6 16 -7 0 -7 8 -1 25 6 15
6 26 0 30 -6 4 -7 13 -1 24 6 10 6 23 1 31 -5 9 -5 19 2 27 7 9 7 13 -1 13 -9
0 -9 5 -1 20 8 15 8 20 -2 20 -9 0 -9 3 0 12 8 8 8 17 1 31 -8 15 -8 18 1 12
9 -6 9 -2 1 14 -7 11 -8 21 -3 21 4 0 8 9 8 20 0 11 -4 20 -9 20 -5 0 -4 7 3
15 10 12 10 15 0 15 -10 0 -10 3 -1 14 8 9 8 16 2 20 -6 4 -7 15 -1 30 5 15 5
27 -3 35 -8 8 -8 11 1 11 9 0 10 5 3 18 -7 13 -6 23 1 30 9 9 9 12 -1 12 -11
0 -11 3 -1 15 8 10 9 15 1 15 -7 0 -8 8 -1 26 7 18 7 23 -1 18 -8 -4 -8 0 0
15 9 16 9 21 0 21 -8 0 -8 5 2 16 10 13 10 17 0 24 -9 5 -10 10 -2 14 8 5 8
13 0 28 -8 16 -8 19 1 13 9 -6 9 -2 1 14 -7 11 -8 21 -3 21 4 0 8 9 8 20 0 11
-4 20 -8 20 -4 0 -3 11 2 25 6 15 6 26 0 30 -6 4 -7 13 -1 24 6 10 6 23 1 31
-5 9 -5 19 2 27 7 9 7 13 -1 13 -8 0 -9 5 -1 19 5 11 6 21 1 23 -5 2 -11 14
-13 28 -1 14 -7 28 -12 31 -5 4 -5 13 0 20 12 20 14 39 3 39 -6 0 -5 8 1 20 7
13 7 20 1 20 -7 0 -7 9 0 27 7 20 7 28 -3 34 -10 6 -10 11 -1 20 10 10 8 16
-6 28 -17 15 -35 111 -21 111 3 0 5 17 5 39 0 25 -4 37 -12 34 -18 -7 -35 35
-31 73 2 20 0 34 -7 34 -5 0 -3 5 5 10 13 9 13 10 0 10 -12 0 -12 2 -1 9 10 7
8 12 -9 24 -13 9 -20 22 -17 30 3 8 3 18 0 21 -9 9 -10 56 -2 56 4 0 2 11 -4
24 -7 13 -15 22 -19 20 -7 -5 -12 18 -9 39 0 4 -4 7 -10 7 -8 0 -8 5 1 15 7 9
8 15 2 15 -5 0 -10 6 -9 13 1 32 -4 47 -15 44 -7 -1 -12 4 -11 11 2 6 -1 12
-7 12 -6 0 -6 9 0 25 6 16 6 26 -1 31 -8 4 -7 9 2 15 11 7 11 9 1 9 -7 0 -22
9 -34 20 -13 12 -17 20 -9 20 11 0 11 3 1 15 -10 12 -10 15 0 15 9 0 9 4 -1
17 -12 14 -12 16 1 9 8 -4 6 1 -6 11 -22 20 -38 73 -21 73 5 0 4 6 -2 14 -9
11 -9 15 1 19 10 4 10 6 0 6 -21 1 -45 30 -39 46 3 7 1 16 -6 19 -9 3 -9 5 1
5 6 1 12 6 12 12 0 5 -4 7 -10 4 -5 -3 -7 0 -4 9 8 20 -6 43 -16 27 -3 -6 -11
9 -17 34 -6 25 -6 45 -2 45 5 0 6 7 3 15 -4 8 -12 15 -19 15 -7 0 -18 7 -25
15 -10 12 -10 15 1 15 11 0 11 2 -1 10 -8 5 -10 10 -4 10 7 0 11 8 10 17 -1
21 -28 51 -40 45 -5 -3 -4 3 2 13 10 20 -2 83 -20 100 -8 7 -8 6 -3 -4 5 -10
4 -12 -4 -7 -6 4 -8 12 -5 18 4 6 1 14 -6 18 -8 5 -9 13 -4 21 14 22 10 43 -9
61 -11 9 -16 22 -12 27 3 6 0 11 -7 11 -9 0 -9 3 2 10 10 6 11 10 3 10 -7 0
-13 5 -13 11 0 5 4 7 10 4 6 -3 7 1 4 9 -3 9 -11 16 -16 16 -7 0 -7 4 0 13 7
8 6 16 -3 24 -7 6 -15 10 -18 7 -2 -3 -7 4 -10 16 -3 11 -1 20 4 20 6 0 5 8
-1 20 -8 14 -8 20 0 20 8 0 8 6 0 20 -6 11 -7 20 -2 20 4 0 8 9 8 20 0 11 -4
20 -9 20 -4 0 -5 6 -1 13 5 7 0 6 -11 -3 -17 -14 -18 -13 -12 3 3 9 3 17 -1
17 -5 0 -9 21 -11 47 -1 26 -4 50 -7 55 -3 4 -1 8 5 8 6 0 6 11 1 30 -5 17 -5
30 0 30 5 0 5 13 0 30 -5 17 -5 30 -1 30 5 0 5 15 2 33 -6 24 -12 31 -27 29
-14 -2 -16 -1 -5 6 7 5 9 12 5 15 -13 8 -9 64 6 81 7 9 17 13 24 9 6 -4 5 1
-3 10 -8 10 -9 17 -3 17 7 0 8 10 2 30 -5 17 -5 30 0 30 5 0 5 13 0 30 -5 17
-5 30 -1 30 5 0 5 18 1 40 -4 22 -4 40 1 40 4 0 4 14 -1 30 -5 17 -5 30 0 30
5 0 5 13 0 30 -5 17 -5 30 0 30 5 0 5 13 0 30 -5 17 -5 30 0 30 5 0 5 13 0 30
-5 17 -5 30 -1 30 5 0 5 18 1 40 -4 22 -5 40 -1 40 3 0 5 17 5 37 -1 21 3 46
8 57 7 13 7 16 -1 12 -13 -9 -2 26 12 35 5 4 10 18 10 33 1 14 5 26 8 26 3 0
3 23 -1 50 -4 28 -3 50 2 50 5 0 4 9 -2 20 -8 14 -8 20 0 20 8 0 8 6 0 20 -8
14 -8 20 0 20 8 0 8 6 0 20 -8 14 -8 20 0 20 8 0 8 6 0 20 -8 14 -8 20 0 20 8
0 8 6 0 20 -8 14 -8 20 0 20 8 0 8 6 0 20 -8 14 -8 20 0 20 8 0 8 6 0 20 -6
11 -7 20 -2 20 4 0 8 9 8 20 0 11 -4 20 -9 20 -4 0 -5 5 -2 10 3 6 1 10 -4 10
-6 0 -11 7 -11 16 0 9 -5 12 -12 8 -7 -4 -10 -4 -7 0 4 4 3 23 -1 42 -4 18 -4
34 0 34 5 0 5 14 0 30 -5 17 -5 30 0 30 5 0 5 13 0 30 -6 20 -5 30 2 30 6 0 0
9 -14 19 -20 16 -25 30 -27 72 -3 71 -3 73 -25 82 -14 6 -17 16 -14 51 1 24 1
43 -1 40 -7 -7 -31 18 -25 27 3 5 0 9 -7 9 -10 0 -10 3 -2 11 8 8 5 17 -13 34
-15 14 -22 29 -18 39 5 12 0 16 -17 16 -16 0 -20 3 -12 8 9 6 7 12 -7 22 -11
8 -20 20 -20 28 0 7 -4 10 -10 7 -5 -3 -10 2 -10 11 0 10 -3 14 -7 11 -8 -9
-36 30 -29 41 2 4 -4 14 -16 21 -15 9 -18 10 -13 0 5 -8 4 -10 -3 -5 -7 4 -12
14 -12 22 0 8 -6 14 -12 14 -18 0 -69 45 -61 54 3 3 1 6 -6 6 -7 0 -10 4 -6 9
3 5 1 12 -5 16 -5 3 -10 2 -10 -4 0 -7 -8 -7 -24 -1 -13 5 -27 6 -32 2 -4 -4
-4 -2 0 5 8 15 -30 38 -39 23 -3 -5 -11 -10 -16 -10 -6 0 -7 5 -4 10 3 6 2 10
-3 10 -5 0 -14 10 -20 23 -7 14 -11 16 -11 7 -1 -12 -3 -12 -10 -1 -7 10 -13
11 -30 2 -11 -7 -21 -8 -21 -3 0 5 -11 8 -25 7 -14 -2 -28 1 -31 7 -4 6 -10 5
-15 -3 -7 -11 -9 -9 -10 6 -1 11 -1 23 0 27 0 4 -10 3 -24 -2 -14 -5 -25 -6
-25 -1 0 11 -19 9 -39 -3 -8 -5 -16 -4 -20 3 -6 8 -15 9 -34 2 -15 -6 -27 -7
-27 -3 0 8 -49 10 -51 2z"/>
</g>
</svg>
