<?xml version="1.0" encoding="UTF-8" standalone="no"?>
<svg
   xmlns:dc="http://purl.org/dc/elements/1.1/"
   xmlns:cc="http://creativecommons.org/ns#"
   xmlns:rdf="http://www.w3.org/1999/02/22-rdf-syntax-ns#"
   xmlns:svg="http://www.w3.org/2000/svg"
   xmlns="http://www.w3.org/2000/svg"
   xmlns:sodipodi="http://sodipodi.sourceforge.net/DTD/sodipodi-0.dtd"
   xmlns:inkscape="http://www.inkscape.org/namespaces/inkscape"
   viewBox="0 0 156.86212 269.54803"
   height="269.54803"
   width="156.86212"
   xml:space="preserve"
   id="svg2"
   version="1.1"
   inkscape:version="0.91 r13725"
   sodipodi:docname="pandf-pear.svg"><sodipodi:namedview
     pagecolor="#ffffff"
     bordercolor="#666666"
     borderopacity="1"
     objecttolerance="10"
     gridtolerance="10"
     guidetolerance="10"
     inkscape:pageopacity="0"
     inkscape:pageshadow="2"
     inkscape:window-width="1920"
     inkscape:window-height="1027"
     id="namedview17"
     showgrid="false"
     fit-margin-top="0"
     fit-margin-left="0"
     fit-margin-right="0"
     fit-margin-bottom="0"
     inkscape:zoom="4.9166667"
     inkscape:cx="146.95169"
     inkscape:cy="186.28139"
     inkscape:window-x="-8"
     inkscape:window-y="1072"
     inkscape:window-maximized="1"
     inkscape:current-layer="svg2" /><metadata
     id="metadata8"><rdf:RDF><cc:Work
         rdf:about=""><dc:format>image/svg+xml</dc:format><dc:type
           rdf:resource="http://purl.org/dc/dcmitype/StillImage" /><dc:title></dc:title></cc:Work></rdf:RDF></metadata><defs
     id="defs6" /><g
     id="g3369"
     transform="translate(-64.007729,1.1035166e-4)"><path
       inkscape:connector-curvature="0"
       d="m 81.422398,65.566675 c 1.928667,-3.912 3.983333,-7.768 5.759866,-11.748 3.688534,-8.265333 6.338534,-16.894666 8.751067,-25.609333 1.659867,-5.996 3.6964,-11.857333 6.896399,-17.266666 4.84893,-8.1959998 12.1172,-11.49066639 21.412,-10.86933307 0.52707,0.036 1.0604,-0.028 1.59053,-0.04533333 2.34427,0.43066666 4.68854,0.86133331 7.0328,1.2906666 2.7496,0.9466667 5.5496,1.7706667 8.23894,2.864 4.79333,1.9493332 9.52,4.0613332 14.27466,6.1053328 -0.052,0.125334 -0.10533,0.250667 -0.15733,0.376 C 151.892,9.3480094 148.588,7.9653427 145.228,6.7320094 139.176,4.5106762 133.0536,2.5906762 126.5536,2.0720095 c -11.38387,-0.9079999 -19.04947,3.668 -23.18334,14.4093335 -1.85986,4.833333 -3.22546,9.861333 -4.720262,14.830666 -3.180667,10.570666 -6.643734,21.031999 -11.5552,30.954666 -0.117734,0.238666 -0.180267,0.502666 -0.414134,1.170666 C 117.16773,64.790675 141.18,53.137342 159.66,28.770676 c -2.84134,4.991999 -5.98267,9.289333 -9.66534,13.166666 -15.22666,16.030666 -34.2108,23.595999 -56.026929,24.521333 -4.186,0.177333 -8.402133,-0.364 -12.604133,-0.573334 0.0192,-0.106666 0.03907,-0.212 0.0588,-0.318666"
       style="fill:#231f20;fill-opacity:1;fill-rule:nonzero;stroke:none"
       id="path24" /><path
       inkscape:connector-curvature="0"
       d="m 144.18133,263.89214 c 6.61867,3.66666 13.616,4.91053 21.03067,3.69066 7.37333,-1.21346 13.92133,-4.39373 19.852,-8.80933 14.33866,-10.68147 23.65199,-24.73213 27.97333,-42.10547 4.044,-16.25333 3.33333,-32.49066 0.0933,-48.75466 -1.89867,-9.536 -5.228,-18.628 -8.352,-27.79333 -3.22667,-9.47067 -5.448,-19.17067 -5.196,-29.24134 0.14267,-5.67066 0.76133,-11.330663 1.224,-16.991996 0.61067,-7.504 1.33333,-15.041333 -0.56533,-22.432 -0.82133,-3.202666 -2.15067,-6.367999 -3.78533,-9.245333 -2.624,-4.62 -6.97334,-6.450666 -12.14667,-5.581333 -3.43867,0.577334 -6.79867,1.704 -10.14667,2.737333 -4.02666,1.241334 -7.968,2.770667 -12.01466,3.938667 -2.89867,0.837333 -5.912,1.116 -8.88934,0.104 4.30934,0.64 8.26667,-0.641333 12.10534,-2.321333 3.816,-1.670667 7.54933,-3.530667 11.33866,-5.262667 12.15467,-5.556 21.65467,0.909334 25.61467,10.654667 2.44666,6.021333 3.16533,12.363999 2.98666,18.778666 -0.204,7.297333 -0.628,14.593333 -1.12,21.878669 -0.64533,9.56266 1.088,18.72133 4.16,27.72133 2.848,8.34267 5.924,16.63333 8.20667,25.13333 4.724,17.58134 5.88,35.43067 1.928,53.33467 -4.8,21.74933 -16.04267,39.06426 -35.74666,50.24546 -6.936,3.936 -14.37067,6.2932 -22.45467,5.9428 -5.91467,-0.2548 -11.34533,-2.04173 -16.096,-5.62146"
       style="fill:#231f20;fill-opacity:1;fill-rule:nonzero;stroke:none"
       id="path26" /><g
       id="g3366"><path
         id="path28"
         style="fill:#231f20;fill-opacity:1;fill-rule:nonzero;stroke:none"
         d="m 153.82266,50.930675 c -4.71066,-0.704 -8.47333,1.137333 -11.732,4.318667 -4.45066,4.343999 -7.504,9.655999 -9.97613,15.255999 -3.31613,7.512 -6.55613,15.078666 -9.364,22.790666 -2.7276,7.493333 -7.026,13.834663 -12.44267,19.540003 -5.77453,6.08266 -11.522929,12.18933 -17.310929,18.25866 -10.671866,11.18934 -17.9516,24.244 -22.008933,39.17734 -4.025466,14.81733 -5.138,29.72133 -1.7948,44.78533 2.614134,11.77733 7.387467,22.57466 16.046933,31.20266 13.1828,13.1332 29.158799,17.0228 47.172929,13.52027 1.88027,-0.36667 3.72427,-0.91627 5.61094,-1.2724 -4.24,1.75467 -8.65107,2.90933 -13.20947,3.33587 -21.42853,2.0032 -37.814532,-6.60107 -49.568665,-24.21974 -7.3584,-11.028 -10.590133,-23.53333 -11.1396,-36.66933 -0.876533,-20.95333 4.081733,-40.46266 15.400533,-58.20133 4.651067,-7.28933 10.7396,-13.4 16.7744,-19.54267 5.382402,-5.47866 10.848532,-10.90133 15.866132,-16.70533 5.99853,-6.938666 9.636,-15.326666 13.40053,-23.607999 3.0844,-6.784 6.24387,-13.545333 9.67347,-20.158666 2.124,-4.093334 5.04,-7.698667 9.008,-10.269333 2.96133,-1.921334 6.14667,-2.561334 9.59333,-1.538667"
         inkscape:connector-curvature="0" /></g><path
       inkscape:connector-curvature="0"
       d="m 175.65733,17.702676 c -4.992,0.530666 -9.99067,1.004 -14.97333,1.606666 -11.77734,1.421334 -23.428,3.424 -34.5256,7.848 -11.5672,4.612 -21.2532,11.552 -27.745869,22.436 -0.686,1.150666 -1.3104,2.337333 -1.9636,3.506666 -0.121867,-0.05867 -0.243733,-0.117333 -0.365067,-0.174666 1.062,-2.205334 1.998934,-4.481334 3.208267,-6.602667 5.385469,-9.449333 13.548529,-15.725333 23.322929,-20.094666 10.7476,-4.804 22.14094,-6.970667 33.77694,-7.945333 6.39333,-0.536 12.81866,-0.674667 19.23066,-0.992 0.012,0.136 0.0227,0.273333 0.0347,0.412"
       style="fill:#231f20;fill-opacity:1;fill-rule:nonzero;stroke:none"
       id="path30" /><path
       inkscape:connector-curvature="0"
       d="m 165.97066,51.744008 c 3.87867,-5.846666 5.64267,-12.529333 8.052,-18.930666 1.60534,-4.262666 3.43867,-8.414666 6.48667,-11.882666 4.06,-4.62 9.21067,-6.678667 15.31867,-6.237333 4.56933,0.330666 7.39199,3.755999 6.59333,7.830666 -0.36934,1.885333 -1.03734,2.570667 -2.91733,2.514667 -7.228,-0.216 -12.23467,3.114666 -15.548,9.393333 -1.632,3.092 -3.45467,6.082666 -5.19067,9.12 -0.12933,-0.072 -0.25867,-0.144 -0.388,-0.216 2.74267,-5.02 5.25867,-10.181334 8.30933,-15.004 1.89467,-2.996 5.33334,-4.105333 8.76934,-4.734667 1.22,-0.224 2.45733,-0.430666 3.692,-0.465333 1.05599,-0.02933 1.25999,-0.558667 1.28399,-1.428 0.072,-2.673333 -1.59866,-4.537333 -4.51599,-4.690666 -5.88267,-0.309334 -10.96534,1.459999 -14.896,6.043999 -3.22534,3.76 -5.092,8.245333 -6.90267,12.765333 -1.96667,4.912 -3.74533,9.916 -6.88667,14.26 -0.408,0.564 -0.84,1.108 -1.26,1.661333"
       style="fill:#231f20;fill-opacity:1;fill-rule:nonzero;stroke:none"
       id="path32" /></g></svg>