<?xml version="1.0" encoding="UTF-8" standalone="no"?>
<svg
   xmlns:dc="http://purl.org/dc/elements/1.1/"
   xmlns:cc="http://creativecommons.org/ns#"
   xmlns:rdf="http://www.w3.org/1999/02/22-rdf-syntax-ns#"
   xmlns:svg="http://www.w3.org/2000/svg"
   xmlns="http://www.w3.org/2000/svg"
   viewBox="0 0 290.53333 384"
   height="384"
   width="290.53333"
   xml:space="preserve"
   id="svg2"
   version="1.1"><metadata
     id="metadata8"><rdf:RDF><cc:Work
         rdf:about=""><dc:format>image/svg+xml</dc:format><dc:type
           rdf:resource="http://purl.org/dc/dcmitype/StillImage" /></cc:Work></rdf:RDF></metadata><defs
     id="defs6" /><g
     transform="matrix(1.3333333,0,0,-1.3333333,0,384)"
     id="g10"><g
       transform="scale(0.1)"
       id="g12"><path
         id="path14"
         style="fill:#231f20;fill-opacity:1;fill-rule:nonzero;stroke:none"
         d="m 945.359,326.48 c 1.161,0 1.739,0.282 1.739,0.872 0,0.57 0.582,0.867 1.742,0.867 v -13.93 c -7.547,-8.707 -18.285,-20.039 -32.215,-33.969 -13.934,-13.929 -29.926,-28.742 -47.891,-44.41 -18.023,-15.672 -37.328,-31.211 -57.933,-46.578 -20.61,-15.402 -40.781,-28.75 -60.516,-40.07 -19.738,-11.321 -38.457,-19.742 -56.164,-25.25 -17.703,-5.524 -32.652,-5.953 -44.844,-1.313 -9.285,2.903 -15.554,9.582 -18.718,20.031 -3.196,10.45 -4.789,22.2 -4.789,35.262 0,13.078 1.16,25.977 3.484,38.77 2.293,12.75 4.902,23.199 7.836,31.34 -11.641,-6.403 -22.203,-14.231 -31.781,-23.512 -9.582,-9.301 -19.477,-17.57 -29.637,-24.809 -10.156,-7.269 -20.75,-12.633 -31.781,-16.109 -11.032,-3.5 -23.508,-2.922 -37.442,1.738 -17.414,5.789 -28.879,16.672 -34.394,32.649 -5.516,15.961 -6.532,34.25 -3.047,54.863 3.48,20.609 10.883,41.808 22.203,63.578 11.32,21.762 25.543,41.488 42.668,59.211 17.125,17.699 36.426,31.629 57.93,41.809 21.449,10.14 44.089,13.769 67.918,10.878 21.48,-2.918 35.41,-8.867 41.796,-17.847 6.383,-9.012 8.274,-19.172 5.661,-30.492 -2.614,-11.321 -7.985,-22.778 -16.11,-34.387 -8.129,-11.633 -15.672,-21.211 -22.64,-28.742 -9.286,-9.301 -14.512,-11.621 -15.672,-6.961 -2.321,2.301 -1.742,5.793 1.742,10.441 3.48,5.789 7.836,13.07 13.059,21.77 5.226,8.711 9.289,17.129 12.191,25.25 2.902,8.129 3.484,15.101 1.742,20.898 -1.742,5.813 -7.836,9.293 -18.285,10.453 -6.965,0 -15.559,-3.922 -25.688,-11.75 -10.16,-7.84 -20.46,-18 -30.91,-30.48 -10.449,-12.5 -20.781,-26.27 -30.941,-41.36 -10.156,-15.109 -18.863,-29.609 -26.121,-43.55 -7.258,-13.93 -12.336,-26.121 -15.238,-36.571 -2.903,-10.449 -2.321,-17.422 1.742,-20.898 2.32,-2.32 7.109,-1.313 14.367,3.047 7.254,4.351 15.965,10.011 26.121,16.98 10.16,6.961 21.625,14.512 34.422,22.641 12.742,8.121 26.125,14.801 40.055,20.019 15.671,5.813 26.847,6.821 33.523,3.051 6.676,-3.769 10.449,-10.59 11.32,-20.461 0.871,-9.867 -0.289,-21.621 -3.484,-35.269 -3.191,-13.641 -6.676,-26.86 -10.449,-39.621 -3.774,-12.778 -6.965,-24.387 -9.578,-34.84 -2.61,-10.449 -3.336,-17.41 -2.176,-20.899 2.324,-6.961 11.898,-8.699 28.734,-5.218 16.836,3.48 38.313,12.48 64.434,26.988 26.125,14.512 55.004,34.691 86.668,60.531 31.636,25.828 63.418,57.617 95.347,95.359" /><path
         id="path16"
         style="fill:#231f20;fill-opacity:1;fill-rule:nonzero;stroke:none"
         d="m 972.32,242.879 c 9.871,8.121 19.883,16.691 30.04,25.68 10.16,9 19.88,17.132 29.2,24.382 9.26,7.258 18.14,13.079 26.56,17.43 8.39,4.359 15.79,6.231 22.2,5.66 12.19,-0.59 19.16,-5.82 20.9,-15.679 1.74,-9.872 0.58,-22.063 -3.48,-36.571 -4.07,-14.519 -9.73,-30.191 -16.98,-47.019 -7.29,-16.852 -13.5,-31.953 -18.72,-45.301 -5.23,-13.352 -8.28,-23.941 -9.15,-31.781 -0.87,-7.84 3.05,-10.008 11.76,-6.532 8.71,2.903 21.77,12.344 39.18,28.301 17.42,15.961 35.85,34.102 55.29,54.43 19.45,20.32 38.03,40.781 55.73,61.391 17.71,20.609 31.49,37.589 41.39,50.949 l -1.74,-15.668 c -19.77,-26.719 -39.65,-51.821 -59.68,-75.332 -20.02,-23.508 -38.89,-44.41 -56.59,-62.707 -17.71,-18.293 -33.82,-33.524 -48.33,-45.711 -14.51,-12.192 -25.83,-20.031 -33.96,-23.512 -6.96,-3.488 -14.69,-4.5 -23.07,-3.051 -8.45,1.453 -13.5,4.793 -15.24,10.012 -1.19,6.398 -0.76,13.5 1.31,21.34 2,7.832 3.91,14.07 5.65,18.719 2.88,12.191 6.65,25.101 11.32,38.761 4.62,13.629 8.71,26.25 12.19,37.879 3.49,11.61 5.95,21.461 7.41,29.602 1.42,8.129 0.98,12.769 -1.31,13.929 -4.06,1.739 -9.72,0.29 -16.98,-4.351 -7.28,-4.649 -15.56,-11.32 -24.82,-20.027 -9.31,-8.711 -19.181,-18.59 -29.63,-29.602 -10.45,-11.051 -20.895,-22.078 -31.344,-33.09 -1.742,-6.98 -3.051,-13.512 -3.918,-19.609 -0.871,-6.09 -1.891,-12.332 -3.051,-18.719 0,-6.961 -2.902,-10.742 -8.707,-11.32 -5.805,-0.582 -12.336,0.578 -19.59,3.488 -7.258,2.898 -14.222,7.109 -20.898,12.621 -6.676,5.52 -10.594,10.891 -11.754,16.109 -1.742,5.219 -1.598,14.219 0.433,27.008 2.032,12.75 4.934,27.121 8.707,43.102 3.774,15.961 8.274,32.648 13.497,50.07 5.226,17.422 10.449,33.969 15.675,49.641 5.223,15.679 10.012,29.301 14.368,40.929 4.351,11.61 7.691,19.731 10.011,24.379 10.449,22.063 19.883,34.25 28.301,36.582 8.418,2.309 18.719,-6.961 30.94,-27.882 3.48,-6.957 7.4,-13.637 11.75,-20.02 4.36,-6.391 5.66,-13.059 3.92,-20.027 -5.22,-20.332 -12.51,-41.364 -21.797,-63.133 -9.286,-21.777 -18.286,-43.688 -26.993,-65.75" /><path
         id="path18"
         style="fill:#231f20;fill-opacity:1;fill-rule:nonzero;stroke:none"
         d="m 1527.04,478 c 8.13,8.711 17.85,19.73 29.17,33.09 11.35,13.351 21.8,27.582 31.37,42.68 9.58,15.082 17.42,30.171 23.51,45.281 6.1,15.09 8.28,28.738 6.53,40.929 -1.74,10.45 -6.41,11.032 -13.93,1.739 -6.41,-5.809 -13.67,-14.797 -21.77,-26.989 -8.15,-12.199 -16.28,-25.558 -24.41,-40.058 -8.12,-14.531 -15.67,-29.043 -22.63,-43.551 -6.97,-14.512 -12.49,-26.41 -16.55,-35.699 -6.38,-15.113 -9.14,-24.383 -8.27,-27.863 0.87,-3.489 6.53,0 16.98,10.441 z M 1218.77,174.949 c -11.61,7.539 -18.87,19.731 -21.77,36.582 -2.9,16.828 -2.47,35.399 1.31,55.731 3.77,20.32 10.74,40.629 20.89,60.957 10.16,20.32 22.35,38.32 36.58,53.992 14.22,15.668 30.33,27.141 48.32,34.391 18,7.257 36.6,7.988 55.76,2.179 11,-3.48 19.01,-9.293 23.94,-17.41 4.91,-8.133 7.52,-17.133 7.84,-27 0.29,-9.883 -1.02,-19.73 -3.92,-29.601 -2.93,-9.891 -6.41,-18.29 -10.45,-25.25 -4.67,-8.141 -8.85,-12.348 -12.62,-12.629 -3.81,-0.301 -3.05,4.488 2.17,14.371 2.91,5.789 4.91,11.449 6.1,16.976 1.16,5.512 1.16,10.453 0,14.801 -1.19,4.352 -3.8,7.973 -7.84,10.883 -4.06,2.91 -9.9,4.359 -17.41,4.359 -6.42,0 -13.67,-3.351 -21.77,-10.019 -8.16,-6.672 -16.28,-15.383 -24.41,-26.121 -8.13,-10.75 -15.82,-22.512 -23.08,-35.282 -7.25,-12.769 -13.2,-25.39 -17.85,-37.871 -4.64,-12.5 -7.69,-23.66 -9.14,-33.527 -1.45,-9.879 -0.14,-16.852 3.92,-20.902 8.13,-10.438 21.77,-12.93 40.92,-7.399 19.16,5.5 39.77,16.68 61.86,33.531 1.16,1.739 1.74,3.18 1.74,4.348 0,1.16 0.55,2.609 1.74,4.352 8.71,33.668 20.32,69.949 34.83,108.859 14.51,38.891 29.89,76.922 46.15,114.082 16.25,37.137 32.36,71.688 48.32,103.629 15.97,31.918 29.75,57.758 41.36,77.5 6.97,12.187 14.66,23.801 23.08,34.84 8.41,11.019 17.12,19.59 26.15,25.687 8.97,6.094 18.14,9 27.43,8.711 9.26,-0.308 17.96,-5.969 26.12,-16.98 11.03,-15.11 16.98,-30.637 17.85,-46.598 0.87,-15.961 -1.74,-32.09 -7.84,-48.332 -6.09,-16.25 -14.51,-32.519 -25.25,-48.758 -10.77,-16.269 -22.38,-31.941 -34.83,-47.031 -12.51,-15.109 -24.7,-29.48 -36.6,-43.102 -11.9,-13.66 -21.91,-26.289 -30.04,-37.898 -11.61,-15.672 -23.51,-34.969 -35.7,-57.898 -12.19,-22.942 -23.51,-47.024 -33.96,-72.282 -10.45,-25.261 -19.3,-50.218 -26.56,-74.89 -7.25,-24.68 -11.75,-46.891 -13.49,-66.621 -2.32,-22.079 0.14,-36.868 7.4,-44.411 7.26,-7.546 17.85,-9.8667 31.78,-6.968 13.93,2.91 30.19,10.019 48.76,21.34 18.58,11.32 38.02,24.519 58.34,39.609 20.32,15.101 40.35,31.5 60.11,49.223 19.71,17.699 37.88,34.238 54.42,49.628 16.55,15.379 30.48,28.731 41.8,40.051 11.32,11.34 18.43,18.739 21.33,22.219 1.16,2.309 2.9,4.629 5.23,6.969 V 303.84 c -9.87,-12.199 -23.08,-26.57 -39.62,-43.11 -16.55,-16.55 -35.12,-33.96 -55.73,-52.25 -20.61,-18.281 -42.23,-36.289 -64.87,-54 -22.67,-17.699 -44.58,-33.519 -65.77,-47.449 -21.19,-13.9294 -40.78,-25.1091 -58.77,-33.531 -18,-8.4102 -32.8,-12.3281 -44.41,-11.75 -9.87,0.582 -19.04,4.2109 -27.43,10.8789 -8.42,6.6797 -15.38,16.2617 -20.9,28.7421 -5.54,12.488 -9.02,27.859 -10.45,46.149 -1.48,18.281 0.12,39.628 4.79,64.011 -26.12,-17.41 -51.4,-30.48 -75.78,-39.199 -24.38,-8.703 -44.41,-7.832 -60.08,2.617" /><path
         id="path20"
         style="fill:#231f20;fill-opacity:1;fill-rule:nonzero;stroke:none"
         d="m 176.816,398.59 c 13.614,4.101 26.211,12.601 37.821,25.551 11.582,12.937 21.273,30.82 29.109,53.66 7.84,22.82 11.758,53.308 11.758,91.469 0,37.46 -3.918,67.96 -11.758,91.468 -7.836,23.512 -17.527,41.731 -29.109,54.692 -11.61,12.929 -24.207,21.621 -37.821,26.058 -13.64,4.41 -25.918,6.633 -36.8,6.633 h -33.727 v -355.66 h 33.727 c 10.882,0 23.16,2.039 36.8,6.129 z m 181.926,218.719 c 1.336,-7.5 2.379,-16.707 3.051,-27.598 0.664,-10.902 1.016,-17.723 1.016,-20.441 v -3.059 c 0,-4.77 -0.176,-9.371 -0.496,-13.801 -0.348,-4.441 -0.872,-9.039 -1.54,-13.801 -3.421,-26.57 -10.562,-50.257 -21.449,-71.019 -10.91,-20.801 -24.726,-38.508 -41.418,-53.16 -16.687,-14.66 -36.105,-25.891 -58.25,-33.731 -22.144,-7.84 -45.48,-11.738 -70.008,-11.738 H 106.289 L 106.289,0 H 0 v 771.629 h 169.648 c 47.02,0 87.915,-13.641 122.657,-40.879 34.742,-27.25 56.89,-65.07 66.437,-113.441" /><path
         id="path22"
         style="fill:#231f20;fill-opacity:1;fill-rule:nonzero;stroke:none"
         d="M 2178.99,771.629 V 746.082 H 1980.72 V 404.719 h 131.86 V 379.18 H 1980.72 V 0 h -106.29 v 771.629 h 304.56" /><path
         id="path24"
         style="fill:#231f20;fill-opacity:1;fill-rule:nonzero;stroke:none"
         d="m 610.668,2388.25 c 14.465,29.34 29.875,58.26 43.199,88.11 27.664,61.99 47.539,126.71 65.633,192.07 12.449,44.97 27.723,88.93 51.723,129.5 36.367,61.47 90.879,86.18 160.59,81.52 3.953,-0.27 7.953,0.21 11.929,0.34 17.582,-3.23 35.164,-6.46 52.746,-9.68 20.622,-7.1 41.622,-13.28 61.792,-21.48 35.95,-14.62 71.4,-30.46 107.06,-45.79 -0.39,-0.94 -0.79,-1.88 -1.18,-2.82 -24.97,9.87 -49.75,20.24 -74.95,29.49 -45.39,16.66 -91.308,31.06 -140.058,34.95 -85.379,6.81 -142.871,-27.51 -173.875,-108.07 -13.949,-36.25 -24.191,-73.96 -35.402,-111.23 -23.855,-79.28 -49.828,-157.74 -86.664,-232.16 -0.883,-1.79 -1.352,-3.77 -3.106,-8.78 228.653,-10.15 408.745,77.25 547.345,260 -21.31,-37.44 -44.87,-69.67 -72.49,-98.75 -114.2,-120.23 -256.581,-176.97 -420.202,-183.91 -31.395,-1.33 -63.016,2.73 -94.531,4.3 0.144,0.8 0.293,1.59 0.441,2.39" /><path
         id="path26"
         style="fill:#231f20;fill-opacity:1;fill-rule:nonzero;stroke:none"
         d="m 1081.36,900.809 c 49.64,-27.5 102.12,-36.829 157.73,-27.68 55.3,9.101 104.41,32.953 148.89,66.07 107.54,80.111 177.39,185.491 209.8,315.791 30.33,121.9 25,243.68 0.7,365.66 -14.24,71.52 -39.21,139.71 -62.64,208.45 -24.2,71.03 -40.86,143.78 -38.97,219.31 1.07,42.53 5.71,84.98 9.18,127.44 4.58,56.28 10,112.81 -4.24,168.24 -6.16,24.02 -16.13,47.76 -28.39,69.34 -19.68,34.65 -52.3,48.38 -91.1,41.86 -25.79,-4.33 -50.99,-12.78 -76.1,-20.53 -30.2,-9.31 -59.76,-20.78 -90.11,-29.54 -21.74,-6.28 -44.34,-8.37 -66.67,-0.78 32.32,-4.8 62,4.81 90.79,17.41 28.62,12.53 56.62,26.48 85.04,39.47 91.16,41.67 162.41,-6.82 192.11,-79.91 18.35,-45.16 23.74,-92.73 22.4,-140.84 -1.53,-54.73 -4.71,-109.45 -8.4,-164.09 -4.84,-71.72 8.16,-140.41 31.2,-207.91 21.36,-62.57 44.43,-124.75 61.55,-188.5 35.43,-131.86 44.1,-265.73 14.46,-400.01 -36,-163.12 -120.32,-292.982 -268.1,-376.841 -52.02,-29.52 -107.78,-47.199 -168.41,-44.571 -44.36,1.911 -85.09,15.313 -120.72,42.161" /><path
         id="path28"
         style="fill:#231f20;fill-opacity:1;fill-rule:nonzero;stroke:none"
         d="m 1153.67,2498.02 c -35.33,5.28 -63.55,-8.53 -87.99,-32.39 -33.38,-32.58 -56.28,-72.42 -74.821,-114.42 -24.871,-56.34 -49.171,-113.09 -70.23,-170.93 -20.457,-56.2 -52.695,-103.76 -93.32,-146.55 C 784,1988.11 740.887,1942.31 697.477,1896.79 617.438,1812.87 562.84,1714.96 532.41,1602.96 c -30.191,-111.13 -38.535,-222.91 -13.461,-335.89 19.606,-88.33 55.406,-169.31 120.352,-234.02 98.871,-98.499 218.691,-127.671 353.797,-101.402 14.102,2.75 27.932,6.872 42.082,9.543 -31.8,-13.16 -64.883,-21.82 -99.071,-25.019 C 775.395,901.148 652.5,965.68 564.344,1097.82 c -55.188,82.71 -79.426,176.5 -83.547,275.02 -6.574,157.15 30.613,303.47 115.504,436.51 34.883,54.67 80.547,100.5 125.808,146.57 40.368,41.09 81.364,81.76 118.996,125.29 44.989,52.04 72.27,114.95 100.504,177.06 23.133,50.88 46.829,101.59 72.551,151.19 15.93,30.7 37.8,57.74 67.56,77.02 22.21,14.41 46.1,19.21 71.95,11.54" /><path
         id="path30"
         style="fill:#231f20;fill-opacity:1;fill-rule:nonzero;stroke:none"
         d="m 1317.43,2747.23 c -37.44,-3.98 -74.93,-7.53 -112.3,-12.05 -88.33,-10.66 -175.71,-25.68 -258.942,-58.86 -86.754,-34.59 -159.399,-86.64 -208.094,-168.27 -5.145,-8.63 -9.828,-17.53 -14.727,-26.3 -0.914,0.44 -1.828,0.88 -2.738,1.31 7.965,16.54 14.992,33.61 24.062,49.52 40.391,70.87 101.614,117.94 174.922,150.71 80.607,36.03 166.057,52.28 253.327,59.59 47.95,4.02 96.14,5.06 144.23,7.44 0.09,-1.02 0.17,-2.05 0.26,-3.09" /><path
         id="path32"
         style="fill:#231f20;fill-opacity:1;fill-rule:nonzero;stroke:none"
         d="m 1244.78,2491.92 c 29.09,43.85 42.32,93.97 60.39,141.98 12.04,31.97 25.79,63.11 48.65,89.12 30.45,34.65 69.08,50.09 114.89,46.78 34.27,-2.48 55.44,-28.17 49.45,-58.73 -2.77,-14.14 -7.78,-19.28 -21.88,-18.86 -54.21,1.62 -91.76,-23.36 -116.61,-70.45 -12.24,-23.19 -25.91,-45.62 -38.93,-68.4 -0.97,0.54 -1.94,1.08 -2.91,1.62 20.57,37.65 39.44,76.36 62.32,112.53 14.21,22.47 40,30.79 65.77,35.51 9.15,1.68 18.43,3.23 27.69,3.49 7.92,0.22 9.45,4.19 9.63,10.71 0.54,20.05 -11.99,34.03 -33.87,35.18 -44.12,2.32 -82.24,-10.95 -111.72,-45.33 -24.19,-28.2 -38.19,-61.84 -51.77,-95.74 -14.75,-36.84 -28.09,-74.37 -51.65,-106.95 -3.06,-4.23 -6.3,-8.31 -9.45,-12.46" /></g></g></svg>