<?xml version="1.0" encoding="UTF-8" standalone="no"?>
<svg
   xmlns:dc="http://purl.org/dc/elements/1.1/"
   xmlns:cc="http://creativecommons.org/ns#"
   xmlns:rdf="http://www.w3.org/1999/02/22-rdf-syntax-ns#"
   xmlns:svg="http://www.w3.org/2000/svg"
   xmlns="http://www.w3.org/2000/svg"
   viewBox="0 0 384 147.84"
   height="147.84"
   width="384"
   xml:space="preserve"
   id="svg2"
   version="1.1"><metadata
     id="metadata8"><rdf:RDF><cc:Work
         rdf:about=""><dc:format>image/svg+xml</dc:format><dc:type
           rdf:resource="http://purl.org/dc/dcmitype/StillImage" /></cc:Work></rdf:RDF></metadata><defs
     id="defs6" /><g
     transform="matrix(1.3333333,0,0,-1.3333333,0,147.84)"
     id="g10"><g
       transform="scale(0.1)"
       id="g12"><path
         id="path14"
         style="fill:#231f20;fill-opacity:1;fill-rule:nonzero;stroke:none"
         d="m 263.16,971.867 c -5.363,0.973 -14.972,-11.445 -28.847,-37.254 -13.879,-25.82 -30.075,-64.531 -48.583,-116.136 19.958,25.312 35.79,47.589 47.481,66.832 11.691,19.23 20.094,35.175 25.199,47.843 5.117,12.661 7.793,22.149 8.035,28.485 0.246,6.328 -0.855,9.742 -3.285,10.23 z M 181.348,616.871 c 4.382,-0.984 9.136,0.367 14.242,4.02 5.117,3.652 10.465,8.761 16.074,15.336 5.594,6.578 11.324,14.484 17.16,23.738 5.852,9.246 11.446,19.23 16.809,29.949 -13.156,-5.844 -24.481,-10.953 -33.969,-15.34 -9.488,-4.379 -16.199,-8.527 -20.094,-12.418 -4.371,-4.386 -7.918,-9.254 -10.59,-14.609 -2.675,-5.363 -4.507,-10.223 -5.472,-14.606 -0.977,-4.386 -0.977,-8.164 0,-11.324 0.965,-3.172 2.922,-4.746 5.84,-4.746 z M 333.285,736.66 c 34.567,10.231 68.172,19.477 100.797,27.758 32.625,8.273 60.375,16.551 83.266,24.84 l -1.453,-11.692 c -0.489,-0.976 -6.461,-3.168 -17.891,-6.57 -11.449,-3.414 -26.301,-7.922 -44.563,-13.516 -18.261,-5.601 -38.722,-11.812 -61.351,-18.628 -22.649,-6.821 -45.172,-13.875 -67.574,-21.18 -10.223,-22.899 -22.157,-44.68 -35.789,-65.379 -13.645,-20.699 -27.645,-37.613 -42.008,-50.766 -14.364,-13.148 -28.364,-21.054 -41.992,-23.738 -13.649,-2.664 -25.321,2.563 -35.071,15.711 -9.734,13.141 -14.242,25.313 -13.508,36.52 0.735,11.195 5.485,21.664 14.243,31.406 8.769,9.738 20.687,18.742 35.789,27.031 15.097,8.273 32.148,16.066 51.144,23.371 6.313,14.121 12.285,28.363 17.895,42.735 5.594,14.355 10.101,27.39 13.508,39.074 3.39,11.687 5.468,21.789 6.203,30.316 0.734,8.512 -0.121,13.988 -2.551,16.434 -6.832,6.808 -15.707,7.176 -26.664,1.093 -10.957,-6.097 -23.016,-16.32 -36.156,-30.675 -13.141,-14.371 -26.664,-31.778 -40.543,-52.231 -13.875,-20.445 -27.153,-41.398 -39.805,-62.812 -7.793,-26.301 -15.953,-54.426 -24.465,-84.367 -8.527,-29.954 -16.687,-58.446 -24.48,-85.477 -7.7933,-27.016 -14.7308,-50.766 -20.8129,-71.211 -6.082,-20.445 -10.1015,-34.566 -12.0586,-42.359 -1.4531,-7.301 -3.3906,-16.321 -5.8359,-27.032 -2.4297,-10.711 -6.3281,-18.734 -11.6914,-24.097 -5.3477,-3.899 -11.1992,-5.242 -17.5274,-4.02 -6.3242,1.223 -12.164,4.633 -17.5273,10.223 -5.36328,5.609 -9.50391,13.035 -12.42187,22.281 -2.92188,9.242 -3.164068,20.199 -0.73438,32.867 2.93359,15.102 6.9375,34.813 12.05465,59.172 5.1211,24.34 11.4454,51.496 18.9961,81.434 7.5469,29.957 16.1993,61.601 25.9336,94.961 9.7461,33.351 20.336,66.222 31.7696,98.609 11.4298,32.383 23.7458,63.426 36.8868,93.133 13.141,29.699 27.031,55.762 41.641,78.164 14.609,22.391 29.691,40.41 45.277,54.047 15.59,13.633 31.894,20.45 48.945,20.45 13.633,-0.49 22.024,-4.739 25.199,-12.778 3.164,-8.039 3.043,-18.262 -0.367,-30.676 -3.406,-12.418 -9.488,-26.188 -18.262,-41.277 -8.753,-15.098 -18.382,-29.942 -28.847,-44.551 -10.485,-14.61 -21.305,-28.246 -32.504,-40.906 -11.219,-12.668 -20.707,-22.649 -28.484,-29.954 -0.993,-2.918 -2.079,-6.457 -3.286,-10.589 -1.222,-4.141 -2.566,-8.883 -4.019,-14.243 11.676,17.528 24.098,33.477 37.238,47.848 13.16,14.356 26.668,25.93 40.543,34.695 13.891,8.762 28.133,13.989 42.742,15.7 14.61,1.707 29.446,-1.344 44.559,-9.129 6.801,-3.907 11.555,-9.989 14.242,-18.262 2.66,-8.281 3.652,-18.262 2.918,-29.941 -0.734,-11.692 -2.918,-24.473 -6.57,-38.348 -3.653,-13.887 -8.649,-28.379 -14.977,-43.469" /><path
         id="path16"
         style="fill:#231f20;fill-opacity:1;fill-rule:nonzero;stroke:none"
         d="m 834.355,784.871 c 0.977,0 1.465,0.238 1.465,0.734 0,0.473 0.477,0.727 1.453,0.727 v -11.684 c -6.328,-7.304 -15.328,-16.8 -27.015,-28.492 -11.692,-11.679 -25.094,-24.105 -40.176,-37.246 -15.098,-13.148 -31.297,-26.183 -48.578,-39.082 -17.281,-12.91 -34.215,-24.105 -50.766,-33.601 -16.562,-9.5 -32.258,-16.559 -47.109,-21.18 -14.871,-4.625 -27.399,-4.992 -37.621,-1.102 -7.797,2.438 -13.035,8.039 -15.711,16.801 -2.676,8.766 -4.02,18.629 -4.02,29.586 0,10.957 0.981,21.789 2.934,32.504 1.941,10.703 4.129,19.473 6.57,26.297 -9.75,-5.363 -18.625,-11.942 -26.664,-19.719 -8.039,-7.805 -16.32,-14.738 -24.832,-20.82 -8.527,-6.098 -17.422,-10.59 -26.664,-13.52 -9.246,-2.918 -19.715,-2.437 -31.402,1.469 -14.61,4.859 -24.239,13.988 -28.852,27.391 -4.644,13.386 -5.488,28.73 -2.566,46.019 2.933,17.277 9.137,35.055 18.625,53.317 9.508,18.261 21.426,34.808 35.804,49.671 14.348,14.852 30.547,26.536 48.563,35.063 18.016,8.512 37.012,11.559 56.984,9.129 18,-2.445 29.692,-7.426 35.055,-14.977 5.348,-7.554 6.938,-16.066 4.754,-25.562 -2.203,-9.5 -6.711,-19.117 -13.512,-28.852 -6.828,-9.75 -13.156,-17.781 -18.992,-24.105 -7.793,-7.793 -12.18,-9.742 -13.156,-5.844 -1.942,1.937 -1.453,4.863 1.465,8.77 2.918,4.859 6.57,10.957 10.957,18.261 4.386,7.305 7.777,14.356 10.222,21.18 2.43,6.812 2.918,12.66 1.469,17.527 -1.469,4.867 -6.57,7.785 -15.344,8.77 -5.851,0 -13.035,-3.293 -21.547,-9.863 -8.527,-6.571 -17.175,-15.098 -25.929,-25.567 -8.774,-10.473 -17.422,-22.035 -25.934,-34.695 -8.527,-12.668 -15.832,-24.832 -21.914,-36.52 -6.098,-11.691 -10.344,-21.914 -12.789,-30.679 -2.43,-8.762 -1.941,-14.61 1.469,-17.536 1.937,-1.945 5.957,-1.089 12.054,2.563 6.083,3.648 13.387,8.394 21.915,14.242 8.511,5.844 18.136,12.16 28.851,18.992 10.695,6.817 21.91,12.418 33.602,16.801 13.14,4.859 22.507,5.715 28.117,2.555 5.594,-3.172 8.769,-8.887 9.488,-17.16 0.735,-8.293 -0.242,-18.157 -2.918,-29.586 -2.672,-11.453 -5.605,-22.532 -8.754,-33.239 -3.179,-10.718 -5.855,-20.453 -8.039,-29.214 -2.199,-8.766 -2.812,-14.61 -1.836,-17.536 1.942,-5.839 9.981,-7.304 24.117,-4.379 14.118,2.918 32.133,10.469 54.047,22.637 21.914,12.176 46.133,29.098 72.68,50.774 26.543,21.66 53.191,48.32 79.98,79.98" /><path
         id="path18"
         style="fill:#231f20;fill-opacity:1;fill-rule:nonzero;stroke:none"
         d="m 853.348,840.387 c 6.816,2.922 13.632,7.543 20.461,13.879 6.816,6.324 12.777,12.781 17.894,19.359 5.106,6.57 8.879,12.285 11.324,17.16 2.43,4.86 2.918,7.551 1.453,8.039 -2.917,0.969 -7.792,-0.367 -14.609,-4.019 -6.816,-3.653 -13.402,-8.399 -19.715,-14.242 -6.34,-5.844 -11.441,-12.415 -15.34,-19.727 -3.914,-7.305 -4.386,-14.129 -1.468,-20.449 z m 37.992,-10.231 c 6.324,-0.488 12.652,-2.437 18.992,-5.843 6.313,-3.407 12.043,-7.305 17.16,-11.684 5.121,-4.383 9.367,-8.762 12.778,-13.149 3.406,-4.386 5.117,-7.792 5.117,-10.222 1.941,-6.332 2.676,-12.059 2.183,-17.168 -0.488,-5.113 -1.711,-9.863 -3.648,-14.242 -1.942,-4.387 -4.266,-8.528 -6.942,-12.414 -2.671,-3.907 -5.222,-7.801 -7.667,-11.692 -3.411,-5.847 -9.016,-15.226 -16.797,-28.125 -7.793,-12.906 -16.075,-27.023 -24.828,-42.367 -8.774,-15.336 -16.934,-30.93 -24.465,-46.746 -7.567,-15.816 -12.793,-29.332 -15.711,-40.539 -1.465,-4.379 -2.692,-8.277 -3.653,-11.684 -0.976,-3.414 -0.734,-6.336 0.735,-8.777 4.371,-7.781 12.164,-10.227 23.363,-7.305 11.203,2.934 24.481,9.258 39.809,19 15.339,9.75 32.152,22.035 50.41,36.891 18.262,14.844 36.629,30.676 55.154,47.476 18.49,16.801 36.38,33.598 53.68,50.399 17.28,16.801 32.87,31.89 46.74,45.293 13.88,13.387 25.2,24.097 33.97,32.137 8.76,8.039 13.88,11.804 15.35,11.324 0,-0.989 0.23,-2.684 0.71,-5.114 0.49,-2.445 -0.71,-5.121 -3.65,-8.039 -7.3,-6.332 -18.5,-17.656 -33.59,-33.961 -15.11,-16.328 -32.86,-34.949 -53.33,-55.882 -20.44,-20.942 -42.48,-42.254 -66.1,-63.914 -23.626,-21.661 -47.235,-40.907 -70.844,-57.7 -23.625,-16.812 -46.395,-29.339 -68.309,-37.625 -21.91,-8.281 -41.394,-9.504 -58.434,-3.652 -15.585,8.285 -24.464,20.34 -26.652,36.156 -2.199,15.832 -0.625,33.367 4.738,52.598 5.348,19.23 13.266,38.953 23.746,59.16 10.469,20.203 20.692,38.594 30.672,55.149 9.977,16.55 18.625,30.191 25.93,40.91 7.305,10.703 10.223,16.547 8.773,17.527 -3.914,0.969 -10.363,-0.488 -19.363,-4.379 -9.015,-3.902 -17.648,-7.305 -25.929,-10.23 -12.668,-6.332 -22.403,-6.825 -29.219,-1.461 -5.364,4.863 -8.16,12.898 -8.391,24.105 -0.258,11.196 2.66,23.856 8.758,37.985 6.082,14.117 15.586,28.964 28.484,44.558 12.895,15.578 30.071,30.188 51.496,43.828 10.711,6.813 20.461,9.969 29.219,9.496 8.77,-0.496 15.707,-3.293 20.828,-8.406 5.102,-5.109 7.657,-11.445 7.657,-18.984 0,-7.559 -3.165,-14.739 -9.493,-21.555 -8.769,-9.742 -16.199,-18.871 -22.277,-27.391 -6.098,-8.527 -11.812,-16.437 -17.16,-23.742" /><path
         id="path20"
         style="fill:#231f20;fill-opacity:1;fill-rule:nonzero;stroke:none"
         d="m 1260.93,849.152 c -3.9,0.969 -8.39,0 -13.51,-2.925 -5.12,-2.918 -10.35,-7.305 -15.71,-13.141 -5.36,-5.848 -10.96,-12.785 -16.79,-20.82 -5.86,-8.039 -11.45,-16.688 -16.81,-25.934 7.79,5.844 16.44,12.172 25.93,18.992 9.5,6.817 17.77,13.266 24.85,19.356 7.04,6.082 12.04,11.437 14.96,16.07 2.93,4.621 1.94,7.418 -2.92,8.402 z M 1158.67,666.543 c 9.24,-10.23 23.12,-14.004 41.64,-11.324 18.5,2.668 39.07,9.972 61.72,21.914 22.64,11.926 45.76,27.629 69.39,47.113 23.61,19.465 44.93,40.652 63.92,63.547 v -16.07 c -18.52,-23.864 -40.07,-46.02 -64.65,-66.465 -24.59,-20.453 -49.44,-37.387 -74.5,-50.774 -25.09,-13.39 -49.19,-22.164 -72.33,-26.289 -23.13,-4.148 -42.25,-1.59 -57.33,7.664 -11.69,6.817 -19.24,18.137 -22.65,33.969 -3.39,15.817 -3.39,33.473 0,52.957 3.41,19.469 9.74,39.317 19,59.528 9.24,20.203 20.69,38.226 34.33,54.054 13.62,15.817 28.96,28.125 46.02,36.891 17.03,8.765 35.29,11.43 54.78,8.031 18.01,-3.906 26.89,-10.355 26.66,-19.355 -0.26,-9.016 -5.36,-18.75 -15.34,-29.215 -9.99,-10.477 -22.64,-20.946 -37.99,-31.41 -15.32,-10.477 -28.85,-18.883 -40.54,-25.2 -6.32,-11.211 -12.04,-22.648 -17.16,-34.332 -5.1,-11.687 -9.26,-22.531 -12.41,-32.507 -3.18,-9.989 -5.12,-18.75 -5.85,-26.293 -0.73,-7.555 0.37,-13.036 3.29,-16.434" /><path
         id="path22"
         style="fill:#231f20;fill-opacity:1;fill-rule:nonzero;stroke:none"
         d="m 2022.04,784.871 c 0.98,0 1.47,0.238 1.47,0.734 0,0.473 0.47,0.727 1.45,0.727 v -11.684 c -6.33,-7.304 -15.33,-16.8 -27.02,-28.492 -11.69,-11.679 -25.09,-24.105 -40.17,-37.246 -15.1,-13.148 -31.3,-26.183 -48.58,-39.082 -17.28,-12.91 -34.21,-24.105 -50.76,-33.601 -16.57,-9.5 -32.26,-16.559 -47.12,-21.18 -14.86,-4.625 -27.39,-4.992 -37.62,-1.102 -7.79,2.438 -13.03,8.039 -15.71,16.801 -2.67,8.766 -4.02,18.629 -4.02,29.586 0,10.957 0.98,21.789 2.94,32.504 1.94,10.703 4.12,19.473 6.57,26.297 -9.75,-5.363 -18.63,-11.942 -26.67,-19.719 -8.03,-7.805 -16.32,-14.738 -24.84,-20.82 -8.52,-6.098 -17.42,-10.59 -26.66,-13.52 -9.25,-2.918 -19.71,-2.437 -31.4,1.469 -14.61,4.859 -24.24,13.988 -28.85,27.391 -4.65,13.386 -5.49,28.73 -2.57,46.019 2.93,17.277 9.14,35.055 18.63,53.317 9.5,18.261 21.42,34.808 35.8,49.671 14.35,14.852 30.55,26.536 48.57,35.063 18.02,8.512 37.01,11.559 56.98,9.129 18.01,-2.445 29.7,-7.426 35.06,-14.977 5.35,-7.554 6.94,-16.066 4.75,-25.562 -2.2,-9.5 -6.71,-19.117 -13.51,-28.852 -6.83,-9.75 -13.15,-17.781 -18.99,-24.105 -7.79,-7.793 -12.18,-9.742 -13.16,-5.844 -1.94,1.937 -1.45,4.863 1.47,8.77 2.92,4.859 6.57,10.957 10.95,18.261 4.39,7.305 7.78,14.356 10.23,21.18 2.43,6.812 2.92,12.66 1.46,17.527 -1.46,4.867 -6.57,7.785 -15.34,8.77 -5.85,0 -13.03,-3.293 -21.54,-9.863 -8.53,-6.571 -17.18,-15.098 -25.94,-25.567 -8.77,-10.473 -17.42,-22.035 -25.94,-34.695 -8.52,-12.668 -15.83,-24.832 -21.91,-36.52 -6.1,-11.691 -10.34,-21.914 -12.79,-30.679 -2.43,-8.762 -1.94,-14.61 1.47,-17.536 1.94,-1.945 5.96,-1.089 12.05,2.563 6.09,3.648 13.39,8.394 21.92,14.242 8.51,5.844 18.14,12.16 28.86,18.992 10.69,6.817 21.91,12.418 33.6,16.801 13.14,4.859 22.51,5.715 28.12,2.555 5.59,-3.172 8.77,-8.887 9.49,-17.16 0.73,-8.293 -0.25,-18.157 -2.92,-29.586 -2.68,-11.453 -5.61,-22.532 -8.76,-33.239 -3.18,-10.718 -5.85,-20.453 -8.04,-29.214 -2.2,-8.766 -2.81,-14.61 -1.83,-17.536 1.94,-5.839 9.98,-7.304 24.11,-4.379 14.12,2.918 32.14,10.469 54.05,22.637 21.92,12.176 46.14,29.098 72.68,50.774 26.54,21.66 53.19,48.32 79.98,79.98" /><path
         id="path24"
         style="fill:#231f20;fill-opacity:1;fill-rule:nonzero;stroke:none"
         d="m 2044.67,714.746 c 8.29,6.817 16.67,14 25.2,21.555 8.53,7.543 16.69,14.355 24.48,20.445 7.78,6.09 15.21,10.957 22.28,14.609 7.05,3.653 13.25,5.235 18.61,4.754 10.24,-0.492 16.08,-4.875 17.55,-13.148 1.45,-8.285 0.47,-18.516 -2.92,-30.68 -3.42,-12.179 -8.18,-25.328 -14.26,-39.445 -6.08,-14.129 -11.32,-26.789 -15.69,-37.984 -4.39,-11.207 -6.94,-20.086 -7.67,-26.657 -0.74,-6.578 2.55,-8.406 9.85,-5.48 7.31,2.43 18.26,10.34 32.87,23.742 14.61,13.387 30.06,28.598 46.38,45.652 16.32,17.039 31.89,34.207 46.76,51.496 14.84,17.278 26.41,31.52 34.69,42.727 l -1.45,-13.148 c -16.57,-22.403 -33.24,-43.461 -50.05,-63.18 -16.79,-19.723 -32.62,-37.258 -47.48,-52.59 -14.85,-15.344 -28.37,-28.125 -40.54,-38.351 -12.18,-10.227 -21.67,-16.801 -28.48,-19.727 -5.84,-2.918 -12.3,-3.766 -19.36,-2.551 -7.06,1.223 -11.33,4.02 -12.78,8.395 -0.98,5.367 -0.61,11.324 1.1,17.894 1.7,6.578 3.29,11.805 4.74,15.711 2.43,10.223 5.59,21.059 9.5,32.504 3.89,11.438 7.31,22.027 10.23,31.777 2.92,9.735 4.98,18.008 6.2,24.829 1.21,6.816 0.84,10.707 -1.1,11.691 -3.41,1.461 -8.16,0.238 -14.24,-3.652 -6.08,-3.903 -13.04,-9.496 -20.81,-16.801 -7.8,-7.305 -16.08,-15.594 -24.84,-24.84 -8.77,-9.25 -17.52,-18.504 -26.29,-27.75 -1.47,-5.844 -2.56,-11.324 -3.29,-16.434 -0.73,-5.121 -1.59,-10.355 -2.55,-15.711 0,-5.843 -2.45,-9.015 -7.31,-9.496 -4.87,-0.488 -10.36,0.481 -16.44,2.926 -6.1,2.43 -11.93,5.961 -17.53,10.59 -5.6,4.621 -8.89,9.129 -9.85,13.516 -1.47,4.379 -1.36,11.925 0.36,22.64 1.7,10.703 4.13,22.762 7.31,36.16 3.15,13.387 6.94,27.395 11.31,42 4.38,14.61 8.77,28.485 13.15,41.633 4.39,13.153 8.41,24.582 12.06,34.332 3.65,9.735 6.45,16.551 8.39,20.453 8.77,18.496 16.67,28.731 23.75,30.676 7.04,1.942 15.69,-5.844 25.93,-23.371 2.92,-5.848 6.2,-11.445 9.85,-16.801 3.66,-5.363 4.76,-10.957 3.29,-16.804 -4.39,-17.043 -10.48,-34.696 -18.26,-52.954 -7.79,-18.261 -15.34,-36.644 -22.65,-55.152" /><path
         id="path26"
         style="fill:#231f20;fill-opacity:1;fill-rule:nonzero;stroke:none"
         d="m 2509.97,911.973 c 6.81,7.304 14.97,16.55 24.46,27.75 9.49,11.203 18.26,23.129 26.3,35.797 8.04,12.652 14.61,25.31 19.73,37.98 5.1,12.66 6.94,24.11 5.47,34.33 -1.47,8.77 -5.36,9.24 -11.69,1.47 -5.36,-4.88 -11.45,-12.42 -18.26,-22.65 -6.82,-10.23 -13.63,-21.43 -20.45,-33.603 -6.83,-12.18 -13.15,-24.352 -18.99,-36.524 -5.84,-12.175 -10.48,-22.164 -13.88,-29.941 -5.36,-12.676 -7.67,-20.453 -6.93,-23.383 0.71,-2.918 5.47,0 14.24,8.774 z M 2251.38,657.77 c -9.73,6.328 -15.83,16.55 -18.26,30.687 -2.43,14.109 -2.08,29.691 1.1,46.742 3.16,17.039 9,34.086 17.53,51.133 8.51,17.039 18.75,32.145 30.68,45.285 11.92,13.149 25.44,22.762 40.54,28.86 15.09,6.082 30.67,6.683 46.75,1.824 9.24,-2.926 15.94,-7.801 20.09,-14.61 4.13,-6.828 6.31,-14.371 6.57,-22.644 0.23,-8.281 -0.85,-16.559 -3.28,-24.832 -2.45,-8.289 -5.37,-15.344 -8.77,-21.188 -3.9,-6.824 -7.43,-10.351 -10.59,-10.589 -3.18,-0.254 -2.56,3.765 1.81,12.046 2.45,4.868 4.15,9.614 5.12,14.25 0.98,4.625 0.98,8.766 0,12.418 -0.97,3.653 -3.17,6.684 -6.57,9.129 -3.4,2.43 -8.28,3.653 -14.61,3.653 -5.36,0 -11.44,-2.809 -18.26,-8.403 -6.83,-5.601 -13.64,-12.906 -20.46,-21.914 -6.81,-9.015 -13.26,-18.871 -19.34,-29.578 -6.1,-10.719 -11.08,-21.309 -14.98,-31.777 -3.91,-10.473 -6.46,-19.848 -7.67,-28.125 -1.22,-8.282 -0.12,-14.125 3.28,-17.528 6.82,-8.761 18.27,-10.839 34.34,-6.211 16.06,4.625 33.35,14 51.85,28.125 0.98,1.461 1.47,2.668 1.47,3.653 0,0.972 0.47,2.191 1.46,3.652 7.31,28.231 17.04,58.672 29.22,91.305 12.17,32.617 25.08,64.515 38.71,95.691 13.63,31.156 27.14,60.133 40.54,86.918 13.39,26.778 24.95,48.448 34.7,65.018 5.84,10.22 12.29,19.95 19.35,29.21 7.06,9.25 14.36,16.44 21.91,21.55 7.55,5.11 15.22,7.54 23.02,7.3 7.77,-0.25 15.08,-4.99 21.91,-14.24 9.24,-12.67 14.24,-25.69 14.97,-39.08 0.74,-13.4 -1.46,-26.91 -6.57,-40.54 -5.12,-13.64 -12.18,-27.276 -21.18,-40.901 -9.03,-13.637 -18.76,-26.786 -29.23,-39.446 -10.47,-12.668 -20.69,-24.718 -30.67,-36.156 -9.99,-11.445 -18.38,-22.043 -25.2,-31.777 -9.75,-13.149 -19.72,-29.34 -29.95,-48.571 -10.22,-19.246 -19.73,-39.449 -28.48,-60.629 -8.77,-21.179 -16.2,-42.128 -22.28,-62.82 -6.1,-20.699 -9.86,-39.324 -11.32,-55.875 -1.96,-18.512 0.1,-30.922 6.2,-37.258 6.08,-6.316 14.97,-8.273 26.66,-5.843 11.69,2.445 25.33,8.406 40.91,17.902 15.57,9.488 31.89,20.562 48.93,33.23 17.04,12.661 33.85,26.411 50.41,41.274 16.55,14.844 31.77,28.726 45.65,41.633 13.87,12.898 25.56,24.105 35.07,33.601 9.49,9.5 15.45,15.703 17.89,18.629 0.97,1.942 2.43,3.891 4.37,5.84 v -21.914 c -8.28,-10.223 -19.34,-22.274 -33.22,-36.156 -13.89,-13.875 -29.47,-28.485 -46.76,-43.828 -17.28,-15.34 -35.42,-30.438 -54.41,-45.286 -19,-14.859 -37.38,-28.125 -55.15,-39.804 -17.77,-11.692 -34.22,-21.059 -49.3,-28.125 -15.1,-7.055 -27.52,-10.348 -37.25,-9.871 -8.29,0.504 -15.96,3.543 -23.02,9.136 -7.06,5.61 -12.91,13.637 -17.53,24.106 -4.63,10.476 -7.54,23.371 -8.77,38.715 -1.22,15.343 0.13,33.238 4.02,53.691 -21.91,-14.609 -43.09,-25.566 -63.54,-32.871 -20.46,-7.305 -37.25,-6.578 -50.41,2.184" /><path
         id="path28"
         style="fill:#231f20;fill-opacity:1;fill-rule:nonzero;stroke:none"
         d="M 380.629,464.32 V 449.191 H 263.313 V 247.234 h 78.011 V 232.125 H 263.313 V 7.78125 H 200.434 V 464.32 h 180.195" /><path
         id="path30"
         style="fill:#231f20;fill-opacity:1;fill-rule:nonzero;stroke:none"
         d="M 725.508,22.8906 V 7.78125 H 539.871 V 464.32 h 62.883 V 22.8906 h 122.754" /><path
         id="path32"
         style="fill:#231f20;fill-opacity:1;fill-rule:nonzero;stroke:none"
         d="m 949.438,235.438 c 0,-41.977 1.605,-77 4.843,-105.04 3.223,-28.066 7.946,-50.566 14.211,-67.5269 6.235,-16.9492 13.692,-29.0703 22.371,-36.3203 8.664,-7.2813 18.447,-10.9024 29.327,-10.9024 10.88,0 20.64,3.6211 29.32,10.9024 8.67,7.25 16.03,19.3711 22.07,36.3203 6.05,16.9609 10.79,39.4609 14.21,67.5269 3.42,28.04 5.13,63.063 5.13,105.04 0,41.582 -1.71,76.5 -5.13,104.753 -3.42,28.254 -8.16,50.961 -14.21,68.125 -6.04,17.161 -13.4,29.461 -22.07,36.934 -8.68,7.457 -18.44,11.199 -29.32,11.199 -10.48,0 -20.07,-3.742 -28.729,-11.199 -8.664,-7.473 -16.121,-19.773 -22.371,-36.934 -6.25,-17.164 -11.098,-39.871 -14.52,-68.125 -3.422,-28.253 -5.132,-63.171 -5.132,-104.753 z m -65.911,2.722 c 0,31.449 3.227,61.278 9.676,89.5 6.449,28.211 15.723,52.996 27.813,74.375 12.101,21.363 26.511,38.293 43.242,50.793 16.719,12.485 35.363,18.735 55.932,18.735 20.95,0 39.9,-6.25 56.83,-18.735 16.93,-12.5 31.34,-29.43 43.24,-50.793 11.88,-21.379 21.06,-46.164 27.51,-74.375 6.45,-28.222 9.67,-58.051 9.67,-89.5 0,-28.621 -3.11,-57.047 -9.36,-85.254 -6.25,-28.222 -15.33,-53.6247 -27.22,-76.1951 -11.89,-22.5703 -26.3,-40.9218 -43.23,-55.0195 -16.93,-14.10937 -36.08,-21.171869 -57.44,-21.171869 -21.381,0 -40.51,6.859379 -57.444,20.570269 -16.93,13.6915 -31.25,31.7422 -42.937,54.1094 -11.692,22.3711 -20.664,47.7698 -26.914,76.1958 -6.25,28.421 -9.368,57.332 -9.368,86.765" /><path
         id="path34"
         style="fill:#231f20;fill-opacity:1;fill-rule:nonzero;stroke:none"
         d="m 1517.44,464.32 h 22.98 V 91.832 c 0,-12.9023 -2.22,-25 -6.65,-36.2812 -4.45,-11.2891 -10.7,-20.9688 -18.75,-29.0195 -8.07,-8.0704 -18.05,-14.4219 -29.93,-19.05083 -11.89,-4.62109 -25.1,-6.960939 -39.6,-6.960939 -13.72,0 -28.02,1.421879 -42.94,4.242189 -14.91,2.82031 -28.62,8.45708 -41.12,16.92968 -12.5,8.457 -22.77,20.2578 -30.84,35.3672 -8.06,15.1211 -12.08,34.9727 -12.08,59.5704 V 464.32 h 62.88 V 102.719 c 0,-16.1292 1.89,-29.4299 5.71,-39.9104 3.82,-10.4766 8.84,-18.8398 15.06,-25.0898 6.21,-6.25 13.64,-10.5899 22.27,-13.0079 8.62,-2.4101 17.76,-3.6211 27.39,-3.6211 19.67,0 35.53,6.5391 47.55,19.6485 12.05,13.1015 18.07,31.7422 18.07,55.9336 V 464.32" /><path
         id="path36"
         style="fill:#231f20;fill-opacity:1;fill-rule:nonzero;stroke:none"
         d="m 1778.86,239.977 c 6.45,0 13.61,1.207 21.47,3.636 7.85,2.414 15.22,7.446 22.06,15.114 6.86,7.656 12.61,18.23 17.24,31.742 4.63,13.508 6.95,31.539 6.95,54.125 0,22.156 -2.32,40.203 -6.95,54.109 -4.63,13.906 -10.38,24.695 -17.24,32.352 -6.84,7.656 -14.21,12.789 -22.06,15.418 -7.86,2.613 -15.02,3.925 -21.47,3.925 H 1758.3 V 239.977 Z M 1865.33,7.78125 1786.73,226.07 H 1758.3 V 7.78125 h -62.87 V 464.32 h 100.97 c 27.81,0 51.9,-8.066 72.25,-24.191 20.35,-16.137 33.36,-38.508 39.01,-67.129 0.8,-4.43 1.41,-9.871 1.81,-16.32 0.39,-6.45 0.61,-10.485 0.61,-12.086 v -1.821 c 0,-2.828 0,-5.546 0,-8.16 0,-2.629 -0.22,-5.347 -0.61,-8.16 -2.42,-20.566 -8.67,-38.203 -18.74,-52.918 -10.08,-14.715 -22.78,-26.101 -38.1,-34.152 L 1934.86,7.78125 h -69.53" /><path
         id="path38"
         style="fill:#231f20;fill-opacity:1;fill-rule:nonzero;stroke:none"
         d="m 2078.99,7.78125 h 62.8906 v 456.539 H 2078.99 Z" /><path
         id="path40"
         style="fill:#231f20;fill-opacity:1;fill-rule:nonzero;stroke:none"
         d="m 2375.49,331.895 c 10.07,-19.364 22.88,-37.102 38.41,-53.211 15.51,-16.137 30.73,-32.348 45.64,-48.684 14.91,-16.32 27.72,-33.773 38.4,-52.309 10.68,-18.535 16.03,-39.898 16.03,-64.089 0,-4.84 -0.3,-9.582 -0.92,-14.2114 -0.59,-4.6289 -1.31,-9.1718 -2.1,-13.6015 -3.24,-14.1172 -9.08,-27.0196 -17.55,-38.7071 -8.46,-11.6914 -18.53,-21.4531 -30.22,-29.3203 -11.71,-7.85154 -24.5,-13.20311 -38.4,-16.0117 -13.91,-2.82813 -28.12,-2.21875 -42.64,1.80078 -22.57,6.05078 -40.71,18.23832 -54.41,36.57812 -13.71,18.3399 -22.59,38.4024 -26.61,60.1601 h 16.93 c 2.42,-11.6874 6.54,-22.7695 12.4,-33.2499 5.83,-10.4805 13,-19.6485 21.46,-27.5 8.47,-7.8672 18.04,-13.9102 28.72,-18.1407 10.68,-4.2382 22.48,-5.5468 35.37,-3.9492 14.92,2.0196 26.72,8.6719 35.38,19.961 8.66,11.2812 13.4,24.1914 14.21,38.7109 0.81,10.4687 0,20.5508 -2.41,30.2189 -2.43,9.676 -6.05,18.953 -10.9,27.816 -10.48,18.949 -23.38,35.879 -38.69,50.793 -15.33,14.914 -30.04,30.242 -44.15,45.969 -15.31,16.914 -28.31,35.066 -38.99,54.414 -10.69,19.348 -16.02,40.711 -16.02,64.09 0,15.723 2.41,31.449 7.24,47.172 4.85,15.722 12.5,29.828 22.99,42.328 10.07,11.676 22.37,20.555 36.89,26.605 14.5,6.036 29.41,7.856 44.74,5.442 12.09,-2.035 22.98,-6.051 32.65,-12.106 9.68,-6.035 18.14,-13.597 25.4,-22.66 7.26,-9.078 13.1,-19.164 17.53,-30.242 4.43,-11.094 7.46,-22.477 9.08,-34.168 h -16.94 c -2.03,11.293 -5.24,22.172 -9.67,32.656 -4.45,10.481 -10.7,19.742 -18.75,27.813 -8.88,9.273 -19.56,16.027 -32.04,20.261 -12.5,4.235 -24.8,4.125 -36.89,-0.304 -12.09,-4.434 -20.97,-11.492 -26.61,-21.164 -5.65,-9.676 -8.77,-20.356 -9.36,-32.047 -0.61,-11.692 0.49,-23.578 3.31,-35.68 2.83,-12.09 6.66,-22.57 11.49,-31.433" /><path
         id="path42"
         style="fill:#231f20;fill-opacity:1;fill-rule:nonzero;stroke:none"
         d="M 2880,464.32 V 7.78125 h -58.65 V 230.918 h -95.54 V 7.78125 h -59.26 V 464.32 h 59.26 V 248.445 h 95.54 V 464.32 H 2880" /></g></g></svg>